<svg xmlns="http://www.w3.org/2000/svg" xmlns:xlink="http://www.w3.org/1999/xlink" version="1.1" x="0px" y="0px" viewBox="0 0 40 37.5" enable-background="new 0 0 40 30" xml:space="preserve"><g><g><path fill="#000000" d="M1,2C0.447,2,0,1.553,0,1l0,0c0-0.552,0.447-1,1-1l0,0h38.002C39.553,0,40,0.448,40,1l0,0    c0,0.553-0.447,1-0.998,1l0,0H1L1,2z"/></g><g><path fill="#000000" d="M1,16c-0.553,0-1-0.448-1-1l0,0c0-0.552,0.447-1,1-1l0,0h38.002C39.553,14,40,14.447,40,15l0,0    c0,0.553-0.447,1-0.998,1l0,0H1L1,16z"/></g><g><path fill="#000000" d="M1,30c-0.553,0-1-0.448-1-1.001l0,0c0-0.552,0.447-1,1-1l0,0h38.002c0.551,0,0.998,0.448,0.998,1l0,0    C40,29.552,39.553,30,39.002,30l0,0H1L1,30z"/></g></g><text x="0" y="45" fill="#000000" font-size="5px" font-weight="bold" font-family="'Helvetica Neue', Helvetica, Arial-Unicode, Arial, Sans-serif"></text><text x="0" y="50" fill="#000000" font-size="5px" font-weight="bold" font-family="'Helvetica Neue', Helvetica, Arial-Unicode, Arial, Sans-serif"></text></svg>