<svg width="705" height="510" viewBox="0 0 705 510" fill="none" xmlns="http://www.w3.org/2000/svg">
<g clip-path="url(#clip0)">
<path opacity="0.1" d="M152.888 0.384014C130.218 -0.396194 106.537 -0.944777 86.0381 8.13733C65.5395 17.2194 49.6911 39.2237 56.5653 59.4543C58.8089 66.0495 63.1786 71.7974 66.8635 77.8014C85.2881 107.827 86.1425 146.636 69.0614 177.351C55.9131 200.995 33.6275 218.989 17.5834 241.017C1.53934 263.046 -7.57839 293.578 8.2048 315.771C19.0117 330.967 39.0668 338.36 58.4958 340.152C77.9248 341.944 97.4646 339.122 116.978 338.397C154.951 337.033 192.761 343.716 227.578 357.945C275.508 377.584 316.799 411.182 367.266 424.147C373.325 425.701 379.658 426.957 385.854 425.902C396.843 424.031 404.833 415.54 413.435 408.835C440.899 387.58 478.922 383.612 514.571 382.625C550.221 381.637 587.35 382.399 619.575 368.094C647.711 355.604 669.371 332.369 682.839 306.122C696.306 279.875 702.157 250.709 704.361 221.664C705.665 204.378 705.62 186.531 699 170.347C691.558 152.153 676.466 137.664 660.638 124.998C644.098 111.759 626.071 99.763 605.651 92.6192C581.259 84.0857 554.779 82.8666 528.809 80.843C475.553 76.6861 422.713 68.7556 370.742 57.1198C321.416 46.0993 267.258 34.061 222.334 11.6117C199.788 0.341347 178.305 1.23737 152.888 0.384014Z" fill="#E6E6E6"/>
<g opacity="0.1">
<path opacity="0.1" d="M465.591 383.807C465.591 383.807 467.9 353.568 486.109 337.08C493.797 330.211 498.891 321.195 500.627 311.388C501.411 306.726 501.739 302.007 501.606 297.29" fill="#536DFE"/>
<path opacity="0.1" d="M513.012 286.836C511.675 290.176 501.338 297.601 501.338 297.601C501.338 297.601 498.729 285.66 500.079 282.319C500.72 280.717 502.016 279.417 503.682 278.707C505.348 277.998 507.247 277.935 508.962 278.534C510.677 279.133 512.068 280.344 512.827 281.901C513.587 283.458 513.653 285.233 513.012 286.836Z" fill="#536DFE"/>
<path opacity="0.1" d="M516.313 309.066C513.247 311.187 500.255 312.168 500.255 312.168C500.255 312.168 505.017 300.825 508.082 298.698C509.555 297.732 511.374 297.342 513.15 297.611C514.926 297.879 516.52 298.785 517.593 300.135C518.666 301.486 519.132 303.174 518.893 304.841C518.654 306.507 517.728 308.021 516.313 309.06V309.066Z" fill="#536DFE"/>
<path opacity="0.1" d="M503.21 340.5C499.414 340.89 487.668 335.623 487.668 335.623C487.668 335.623 497.908 328.077 501.697 327.7C503.458 327.609 505.19 328.153 506.536 329.219C507.882 330.285 508.74 331.792 508.934 333.431C509.127 335.069 508.642 336.715 507.578 338.03C506.513 339.345 504.95 340.229 503.21 340.5Z" fill="#536DFE"/>
<path opacity="0.1" d="M487.564 362.199C483.898 363.181 471.363 359.828 471.363 359.828C471.363 359.828 480.089 350.777 483.755 349.795C484.635 349.534 485.562 349.44 486.482 349.519C487.402 349.598 488.295 349.849 489.109 350.256C489.923 350.664 490.642 351.22 491.222 351.891C491.802 352.563 492.232 353.336 492.487 354.166C492.742 354.996 492.816 355.865 492.705 356.722C492.594 357.579 492.301 358.406 491.842 359.155C491.383 359.904 490.767 360.559 490.033 361.082C489.298 361.605 488.458 361.985 487.564 362.199Z" fill="#536DFE"/>
<path opacity="0.1" d="M486.416 308.072C488.046 311.291 499.016 317.868 499.016 317.868C499.016 317.868 500.529 305.768 498.892 302.544C498.076 301.047 496.667 299.907 494.966 299.366C493.265 298.824 491.404 298.924 489.78 299.643C488.156 300.363 486.896 301.646 486.268 303.22C485.64 304.794 485.693 306.534 486.416 308.072Z" fill="#536DFE"/>
<path opacity="0.1" d="M468.461 333.667C471.07 336.282 483.624 339.494 483.624 339.494C483.624 339.494 481.192 327.523 478.602 324.902C477.357 323.652 475.632 322.914 473.806 322.85C471.979 322.787 470.201 323.402 468.859 324.562C467.517 325.721 466.722 327.331 466.647 329.037C466.572 330.744 467.225 332.409 468.461 333.667Z" fill="#536DFE"/>
<path opacity="0.1" d="M454.667 360.779C456.741 363.766 468.559 368.916 468.559 368.916C468.559 368.916 468.324 356.726 466.243 353.745C465.221 352.363 463.662 351.407 461.898 351.082C460.134 350.757 458.304 351.087 456.797 352.003C455.289 352.919 454.224 354.348 453.826 355.987C453.428 357.626 453.73 359.345 454.667 360.779Z" fill="#536DFE"/>
<path opacity="0.1" d="M513.012 286.836C511.675 290.176 501.338 297.601 501.338 297.601C501.338 297.601 498.729 285.66 500.079 282.319C500.72 280.717 502.016 279.417 503.682 278.707C505.348 277.998 507.247 277.935 508.962 278.534C510.677 279.133 512.068 280.344 512.827 281.901C513.587 283.458 513.653 285.233 513.012 286.836Z" fill="#536DFE"/>
<path opacity="0.1" d="M516.313 309.066C513.247 311.187 500.255 312.168 500.255 312.168C500.255 312.168 505.017 300.825 508.082 298.698C509.555 297.732 511.374 297.342 513.15 297.611C514.926 297.879 516.52 298.785 517.593 300.135C518.666 301.486 519.132 303.174 518.893 304.841C518.654 306.507 517.728 308.021 516.313 309.06V309.066Z" fill="#536DFE"/>
<path opacity="0.1" d="M503.21 340.5C499.414 340.89 487.668 335.623 487.668 335.623C487.668 335.623 497.908 328.077 501.697 327.7C503.458 327.609 505.19 328.153 506.536 329.219C507.882 330.285 508.74 331.792 508.934 333.431C509.127 335.069 508.642 336.715 507.578 338.03C506.513 339.345 504.95 340.229 503.21 340.5Z" fill="#536DFE"/>
<path opacity="0.1" d="M487.564 362.199C483.898 363.181 471.363 359.828 471.363 359.828C471.363 359.828 480.089 350.777 483.755 349.795C484.635 349.534 485.562 349.44 486.482 349.519C487.402 349.598 488.295 349.849 489.109 350.256C489.923 350.664 490.642 351.22 491.222 351.891C491.802 352.563 492.232 353.336 492.487 354.166C492.742 354.996 492.816 355.865 492.705 356.722C492.594 357.579 492.301 358.406 491.842 359.155C491.383 359.904 490.767 360.559 490.033 361.082C489.298 361.605 488.458 361.985 487.564 362.199Z" fill="#536DFE"/>
<path opacity="0.1" d="M486.416 308.072C488.046 311.291 499.016 317.868 499.016 317.868C499.016 317.868 500.529 305.768 498.892 302.544C498.076 301.047 496.667 299.907 494.966 299.366C493.265 298.824 491.404 298.924 489.78 299.643C488.156 300.363 486.896 301.646 486.268 303.22C485.64 304.794 485.693 306.534 486.416 308.072Z" fill="#536DFE"/>
<path opacity="0.1" d="M468.461 333.667C471.07 336.282 483.624 339.494 483.624 339.494C483.624 339.494 481.192 327.523 478.602 324.902C477.357 323.652 475.632 322.914 473.806 322.85C471.979 322.787 470.201 323.402 468.859 324.562C467.517 325.721 466.722 327.331 466.647 329.037C466.572 330.744 467.225 332.409 468.461 333.667Z" fill="#536DFE"/>
<path opacity="0.1" d="M454.667 360.779C456.741 363.766 468.559 368.916 468.559 368.916C468.559 368.916 468.324 356.726 466.243 353.745C465.221 352.363 463.662 351.407 461.898 351.082C460.134 350.757 458.304 351.087 456.797 352.003C455.289 352.919 454.224 354.348 453.826 355.987C453.428 357.626 453.73 359.345 454.667 360.779Z" fill="#536DFE"/>
</g>
<path d="M464.045 27.0635H140.086C132.882 27.0635 127.042 32.5215 127.042 39.2542V449.741C127.042 456.474 132.882 461.932 140.086 461.932H464.045C471.249 461.932 477.089 456.474 477.089 449.741V39.2542C477.089 32.5215 471.249 27.0635 464.045 27.0635Z" fill="#535461"/>
<path d="M459.304 68.195H144.827V420.794H459.304V68.195Z" fill="#F6F7F9"/>
<path d="M300.644 51C303.003 51 304.916 49.2125 304.916 47.0075C304.916 44.8025 303.003 43.015 300.644 43.015C298.284 43.015 296.372 44.8025 296.372 47.0075C296.372 49.2125 298.284 51 300.644 51Z" fill="#F6F7F9"/>
<path d="M300.644 452.624C307.718 452.624 313.453 447.264 313.453 440.653C313.453 434.041 307.718 428.682 300.644 428.682C293.569 428.682 287.835 434.041 287.835 440.653C287.835 447.264 293.569 452.624 300.644 452.624Z" fill="#F6F7F9"/>
<g opacity="0.8">
<path opacity="0.2" d="M459.304 68.195H144.827V85.768H459.304V68.195Z" fill="#536DFE"/>
</g>
<path d="M154.662 80.7332C156.877 80.7332 158.673 79.0549 158.673 76.9846C158.673 74.9143 156.877 73.2359 154.662 73.2359C152.447 73.2359 150.651 74.9143 150.651 76.9846C150.651 79.0549 152.447 80.7332 154.662 80.7332Z" fill="#F6F7F9"/>
<path d="M164.882 80.7332C167.097 80.7332 168.893 79.0549 168.893 76.9846C168.893 74.9143 167.097 73.2359 164.882 73.2359C162.667 73.2359 160.871 74.9143 160.871 76.9846C160.871 79.0549 162.667 80.7332 164.882 80.7332Z" fill="#F6F7F9"/>
<path d="M175.096 80.7332C177.311 80.7332 179.107 79.0549 179.107 76.9846C179.107 74.9143 177.311 73.2359 175.096 73.2359C172.88 73.2359 171.085 74.9143 171.085 76.9846C171.085 79.0549 172.88 80.7332 175.096 80.7332Z" fill="#F6F7F9"/>
<path d="M447.062 171.847H154.219V172.761H447.062V171.847Z" fill="#DCE0ED"/>
<path d="M447.062 193.077H154.219V193.991H447.062V193.077Z" fill="#DCE0ED"/>
<path d="M447.062 214.313H154.219V215.228H447.062V214.313Z" fill="#DCE0ED"/>
<path d="M447.062 235.544H154.219V236.458H447.062V235.544Z" fill="#DCE0ED"/>
<path d="M447.062 256.774H154.219V257.688H447.062V256.774Z" fill="#DCE0ED"/>
<g opacity="0.8">
<path opacity="0.2" d="M389.819 103.835H298.25C297.856 103.835 297.478 103.981 297.199 104.242C296.92 104.502 296.763 104.856 296.763 105.224V163.1C296.764 163.378 296.853 163.65 297.021 163.88C297.188 164.11 297.426 164.288 297.703 164.39C297.98 164.493 298.283 164.515 298.574 164.455C298.864 164.394 299.129 164.254 299.333 164.051L315.201 148.233C315.339 148.095 315.507 147.984 315.693 147.909C315.88 147.833 316.08 147.794 316.283 147.795H389.819C390.213 147.795 390.591 147.648 390.87 147.388C391.149 147.127 391.306 146.773 391.306 146.405V105.212C391.302 104.846 391.144 104.495 390.866 104.237C390.587 103.979 390.211 103.835 389.819 103.835Z" fill="#536DFE"/>
</g>
<path d="M370.103 114.55H317.96V120.646H370.103V114.55Z" fill="#F6F7F9"/>
<path d="M332.275 128.058H317.96V134.153H332.275V128.058Z" fill="#F6F7F9"/>
<g opacity="0.8">
<path opacity="0.2" d="M193.266 301.307H178.95V307.402H193.266V301.307Z" fill="#536DFE"/>
</g>
<g opacity="0.8">
<path opacity="0.2" d="M193.266 313.089H178.95V319.184H193.266V313.089Z" fill="#536DFE"/>
</g>
<g opacity="0.8">
<path opacity="0.2" d="M193.266 324.871H178.95V330.967H193.266V324.871Z" fill="#536DFE"/>
</g>
<g opacity="0.8">
<path opacity="0.2" d="M193.266 336.66H178.95V342.755H193.266V336.66Z" fill="#536DFE"/>
</g>
<g opacity="0.8">
<path opacity="0.2" d="M193.266 348.442H178.95V354.537H193.266V348.442Z" fill="#536DFE"/>
</g>
<g opacity="0.8">
<path opacity="0.2" d="M193.266 360.224H178.95V366.32H193.266V360.224Z" fill="#536DFE"/>
</g>
<g opacity="0.8">
<path opacity="0.2" d="M193.266 372.013H178.95V378.108H193.266V372.013Z" fill="#536DFE"/>
</g>
<g opacity="0.8">
<path opacity="0.2" d="M193.266 383.795H178.95V389.891H193.266V383.795Z" fill="#536DFE"/>
</g>
<g opacity="0.8">
<path opacity="0.2" d="M220.221 389.891H205.905V395.986H220.221V389.891Z" fill="#536DFE"/>
</g>
<g opacity="0.8">
<path opacity="0.2" d="M245.442 389.891H231.126V395.986H245.442V389.891Z" fill="#536DFE"/>
</g>
<g opacity="0.8">
<path opacity="0.2" d="M270.662 389.891H256.346V395.986H270.662V389.891Z" fill="#536DFE"/>
</g>
<g opacity="0.8">
<path opacity="0.2" d="M295.876 389.891H281.56V395.986H295.876V389.891Z" fill="#536DFE"/>
</g>
<g opacity="0.8">
<path opacity="0.2" d="M321.097 389.891H306.781V395.986H321.097V389.891Z" fill="#536DFE"/>
</g>
<g opacity="0.8">
<path opacity="0.2" d="M346.317 389.891H332.001V395.986H346.317V389.891Z" fill="#536DFE"/>
</g>
<g opacity="0.8">
<path opacity="0.2" d="M371.531 389.891H357.215V395.986H371.531V389.891Z" fill="#536DFE"/>
</g>
<g opacity="0.8">
<path opacity="0.2" d="M396.752 389.891H382.436V395.986H396.752V389.891Z" fill="#536DFE"/>
</g>
<g opacity="0.8">
<path opacity="0.2" d="M421.972 389.891H407.656V395.986H421.972V389.891Z" fill="#536DFE"/>
</g>
<path d="M370.103 128.058H348.365V134.153H370.103V128.058Z" fill="#F6F7F9"/>
<path d="M220.221 345.596H205.905V383.795H220.221V345.596Z" fill="#536DFE"/>
<path d="M245.442 327.919H231.126V383.795H245.442V327.919Z" fill="#536DFE"/>
<path d="M270.662 313.089H256.346V383.795H270.662V313.089Z" fill="#536DFE"/>
<path d="M295.876 320.775H281.56V383.789H295.876V320.775Z" fill="#536DFE"/>
<path d="M321.097 307.402H306.781V383.795H321.097V307.402Z" fill="#536DFE"/>
<g opacity="0.8">
<path opacity="0.2" d="M346.317 336.66H332.001V383.795H346.317V336.66Z" fill="#536DFE"/>
</g>
<g opacity="0.8">
<path opacity="0.2" d="M371.531 336.66H357.215V383.795H371.531V336.66Z" fill="#536DFE"/>
</g>
<g opacity="0.8">
<path opacity="0.2" d="M396.752 336.66H382.436V383.795H396.752V336.66Z" fill="#536DFE"/>
</g>
<g opacity="0.8">
<path opacity="0.2" d="M421.972 336.66H407.656V383.795H421.972V336.66Z" fill="#536DFE"/>
</g>
<path d="M645.337 166.099C629.834 157.767 623.977 155.7 623.945 155.688L623.632 155.475C621.941 154.261 620.597 152.676 619.719 150.861C619.719 150.525 619.719 150.196 619.719 149.867V149.965C619.966 145.551 623.325 141.535 626.514 138.03L634.66 129.07C635.589 128.185 636.305 127.125 636.76 125.961C636.929 125.338 637.003 124.696 636.982 124.053C636.982 123.791 636.982 123.529 636.982 123.273C636.943 121.048 636.871 118.817 636.787 116.568C636.708 114.624 636.174 112.173 634.093 111.771C633.01 111.564 631.582 111.929 631.008 111.058C630.816 110.702 630.767 110.293 630.871 109.906C630.868 109.936 630.868 109.967 630.871 109.997V109.887C631.276 108.386 631.536 106.854 631.647 105.31C631.688 104.525 631.573 103.739 631.308 102.994C630.102 99.763 625.954 98.4403 622.282 97.8308C618.61 97.2212 614.501 96.697 612.199 94.0151C611.488 93.1861 611.005 92.1865 610.196 91.4367C609.134 90.5572 607.839 89.9595 606.446 89.7057C601.892 88.6538 597.094 89.0439 592.802 90.815C591.028 91.5525 589.248 92.5522 587.304 92.4425C585.361 92.3328 583.554 91.0223 581.559 90.7053C578.337 90.1933 575.252 92.4059 573.667 95.0208C572.726 96.5762 572.223 98.3297 572.206 100.117C572.206 100.214 572.206 100.318 572.206 100.415C572.158 102.336 572.909 104.2 574.3 105.615C575.689 106.962 577.763 107.888 578.337 109.662C578.571 110.381 578.513 111.161 578.721 111.893C578.721 111.984 578.78 112.076 578.813 112.161L578.708 112.289C575.383 116.272 573.582 121.183 573.595 126.235C573.629 131.136 575.33 135.901 578.452 139.839C581.575 143.777 585.956 146.685 590.963 148.142C590.963 148.368 590.963 148.599 590.963 148.825C590.963 151.592 590.122 154.414 587.591 156.493L565.638 164.746C565.638 164.746 552.405 163.277 547.631 181.356C546.863 184.357 546.586 187.45 546.809 190.529C546.985 193.254 546.581 198.057 543.19 204.268C537.757 214.204 538.996 237.013 550.096 239.274C560.577 241.407 564.68 240.493 565.097 240.414V240.81C564.927 245.077 563.264 282.009 557.218 286.477C555.549 287.696 555.862 288.549 557.218 289.11C557.218 289.11 557.218 289.347 557.179 289.774C556.997 292.474 556.064 302.757 552.02 308.609C547.331 315.381 547.82 354.458 547.82 354.458L544.67 377.517C544.67 377.517 546.627 391.744 544.67 394.231C542.909 396.443 540.561 449.089 540.105 460.493H539.896C538.93 460.548 537.993 460.822 537.166 461.293C536.34 461.763 535.649 462.416 535.155 463.194C532.546 467.131 523.48 474.403 523.48 474.403C521.524 477.018 514.226 479.517 510.371 480.7C509.854 480.855 509.356 481.059 508.884 481.309C507.444 482.043 506.287 483.182 505.577 484.564C505.326 484.972 505.165 485.423 505.104 485.889C505.042 486.356 505.081 486.83 505.219 487.283C506.21 489.538 526.689 491.117 531.868 488.861C535.944 487.081 552.086 484.747 558.784 483.833C560 483.688 561.131 483.17 561.998 482.361C562.866 481.551 563.421 480.495 563.577 479.359C563.637 478.963 563.609 478.56 563.497 478.175C563.385 477.789 563.19 477.429 562.925 477.116C561.621 475.628 560.969 471.575 560.688 468.929C561.233 468.724 561.741 468.443 562.195 468.094C561.645 459.889 562.903 451.665 565.893 443.932C570.83 431.742 572.31 409.146 571.11 394.468C571.11 394.468 586.163 333.941 598.007 328.291C598.19 328.504 603.935 335.404 604.666 356.744C605.409 378.425 613.797 392.652 613.797 392.652C613.797 392.652 610.092 429.468 613.797 443.243L608.951 464.98C608.599 464.693 608.37 464.474 608.37 464.474C608.37 464.474 608.514 465.083 608.716 466.046L608.612 466.503L608.82 466.552C609.368 469.271 610.183 474.007 609.851 476.786C609.655 478.365 609.199 480.535 608.859 482.662C608.351 486.009 608.207 489.251 610.092 489.977C613.177 491.135 631.315 492.72 634.4 488.995C635.092 488.236 635.543 487.31 635.702 486.324C635.861 485.337 635.721 484.329 635.3 483.412C635.075 482.9 634.772 482.422 634.4 481.992C634.4 481.992 629.586 474.635 630.943 469.448C631.072 468.941 631.087 468.414 630.988 467.901C630.89 467.388 630.679 466.9 630.369 466.467C630.578 463.919 631.673 452.137 634.524 442.128C637.608 431.26 644.124 407.433 639.33 391.762C639.148 391.152 638.939 390.543 638.717 389.933C635.951 381.38 635.029 372.399 636.004 363.51C634.224 355.92 634.224 348.059 636.004 340.469C638.965 327.821 641.032 315.399 641.032 315.399C641.032 315.399 642.669 298.692 641.241 288.445L641.143 287.787L641.926 287.622C641.926 287.622 637.732 270.232 636.252 259.169C635.9 256.554 635.443 253.245 634.947 249.709C636.314 249.505 637.661 249.193 638.971 248.777C652.25 244.467 656.424 205.627 656.424 205.627V193.315C656.424 193.315 660.885 174.456 645.337 166.099ZM546.072 466.034C545.662 465.839 545.42 465.711 545.42 465.711L546.072 466.034Z" fill="url(#paint0_linear)"/>
<path d="M637.295 390.262C643.074 405.793 636.33 430.998 633.2 442.25C630.069 453.502 629.104 467.015 629.104 467.015C616.823 468.814 607.914 466.558 607.914 466.558L612.968 443.396C609.355 429.669 612.968 392.981 612.968 392.981C612.968 392.981 604.783 378.803 604.059 357.195C603.348 335.922 597.74 329.053 597.537 328.839C585.98 334.465 571.286 394.791 571.286 394.791C572.493 409.42 571.045 431.924 566.232 444.079C563.312 451.799 562.084 459.989 562.619 468.161C560.936 469.49 558.595 469.716 556.064 469.338C549.209 468.271 540.985 462.736 540.985 462.736C540.985 462.736 543.594 397.022 545.551 394.541C547.507 392.061 545.551 377.883 545.551 377.883L548.675 354.928C548.675 354.928 548.199 315.984 552.77 309.212C556.723 303.379 557.629 293.133 557.805 290.445C557.805 290.018 557.845 289.78 557.845 289.78L564.81 281.978C564.81 281.978 632.247 277.254 637.302 281.978C638.548 283.142 639.311 285.776 639.767 289.098C641.156 299.307 639.565 315.96 639.565 315.96C639.565 315.96 637.543 328.34 634.654 340.951C632.914 348.516 632.914 356.341 634.654 363.906C633.695 372.768 634.592 381.721 637.295 390.262Z" fill="#2F2E41"/>
<path d="M633.082 488.959C630.069 492.671 612.368 491.092 609.355 489.94C607.516 489.227 607.659 485.996 608.155 482.662C608.468 480.541 608.931 478.395 609.12 476.805C609.603 472.751 607.672 464.535 607.672 464.535C607.672 464.535 611.651 468.472 612.61 464.535C613.034 462.816 614.514 461.932 616.047 461.487C618.112 460.907 620.33 461.037 622.301 461.853C625.425 463.12 630.65 465.827 629.71 469.484C628.406 474.653 633.082 481.986 633.082 481.986C633.445 482.415 633.739 482.892 633.956 483.4C634.369 484.312 634.505 485.313 634.351 486.294C634.197 487.274 633.758 488.196 633.082 488.959Z" fill="#A27772"/>
<path opacity="0.1" d="M633.082 488.959C630.069 492.671 612.368 491.092 609.355 489.94C607.516 489.227 607.659 485.996 608.155 482.662C610.053 483.491 613.288 484.186 618.675 483.717C619.935 483.607 621.2 483.57 622.464 483.607C626.296 483.772 630.135 483.7 633.956 483.394C634.37 484.307 634.507 485.309 634.353 486.291C634.199 487.272 633.759 488.195 633.082 488.959Z" fill="black"/>
<path d="M625.856 158.212L622.914 171.713L608.514 194.333L590.754 187.244C590.754 187.244 566.623 163.612 581.787 160.235C583.603 159.873 585.319 159.158 586.822 158.138C589.802 156.042 590.735 152.988 590.735 150.001C590.735 145.07 588.27 140.316 588.27 140.316L619.334 131.172C618.051 134.988 617.301 138.942 617.103 142.937C616.868 150.861 620.012 154.737 622.588 156.596C623.553 157.331 624.663 157.88 625.856 158.212Z" fill="#FBBEBE"/>
<path opacity="0.1" d="M619.353 131.203C618.07 135.018 617.32 138.972 617.123 142.967C616.558 143.596 615.955 144.195 615.316 144.759C612.11 147.624 608.133 149.624 603.809 150.546C599.485 151.469 594.974 151.281 590.754 150.001C590.754 145.07 588.289 140.316 588.289 140.316L619.353 131.203Z" fill="black"/>
<path d="M622.914 127.491C622.913 132.032 621.471 136.47 618.77 140.245C616.069 144.02 612.231 146.961 607.741 148.697C603.252 150.432 598.312 150.885 593.547 149.996C588.782 149.108 584.407 146.919 580.973 143.706C577.54 140.493 575.203 136.4 574.259 131.946C573.315 127.492 573.805 122.876 575.669 118.682C577.532 114.488 580.684 110.905 584.726 108.386C588.769 105.867 593.52 104.525 598.379 104.53C601.606 104.52 604.804 105.107 607.788 106.258C610.771 107.409 613.482 109.101 615.763 111.235C618.044 113.37 619.85 115.905 621.077 118.695C622.305 121.485 622.929 124.474 622.914 127.491Z" fill="#FBBEBE"/>
<path opacity="0.1" d="M625.856 158.212L622.914 171.713L608.514 194.333L590.754 187.244C590.754 187.244 566.623 163.612 581.787 160.235C583.603 159.873 585.319 159.158 586.822 158.138C584.082 165.179 595.392 179.82 595.392 179.82C596.696 181.648 599.729 180.49 599.729 180.49C607.007 179.466 620.423 159.882 622.608 156.627C623.569 157.349 624.673 157.887 625.856 158.212Z" fill="black"/>
<path opacity="0.1" d="M639.761 289.134C635.489 290.042 611.827 294.943 602.853 293.718C592.985 292.365 573.784 291.469 573.784 291.469C573.784 291.469 561.562 292.078 557.799 290.481C557.799 290.054 557.838 289.817 557.838 289.817L564.804 282.015C564.804 282.015 632.241 277.291 637.295 282.015C638.541 283.167 639.304 285.8 639.761 289.134Z" fill="black"/>
<path d="M595.392 180.49C595.392 180.49 582.687 164.033 587.474 157.639L566.01 165.861C566.01 165.861 553.09 164.398 548.401 182.416C547.652 185.41 547.382 188.491 547.599 191.559C547.768 194.278 547.377 199.063 544.064 205.25C538.761 215.155 539.968 237.884 550.807 240.139C561.647 242.395 565.495 241.261 565.495 241.261C565.495 241.261 564.053 282.454 557.792 287.177C551.531 291.901 573.752 290.78 573.752 290.78C573.752 290.78 592.952 291.682 602.827 293.029C612.701 294.376 640.393 288.305 640.393 288.305C640.393 288.305 636.297 270.97 634.856 259.943C633.415 248.917 630.036 225.431 630.036 225.431L654.605 194.345C654.605 194.345 658.935 175.553 643.765 167.227C628.595 158.9 622.895 156.864 622.895 156.864C622.895 156.864 607.672 180.027 599.729 181.167C599.729 181.167 596.709 182.3 595.392 180.49Z" fill="#536DFE"/>
<path opacity="0.1" d="M567.217 187.018C567.217 187.018 566.975 194.449 568.417 197.38C569.858 200.312 575.16 216.514 575.16 216.514H563.121C563.121 216.514 569.643 209.986 569.141 206.834C568.638 203.683 567.217 187.018 567.217 187.018Z" fill="black"/>
<path d="M602.859 243.065C602.859 243.065 576.263 236.97 573.784 231.807C571.306 226.644 564.464 215.051 564.464 215.051L567.269 211.516L580.208 221.006C580.208 221.006 595.62 232.484 602.846 233.611C610.073 234.739 602.859 243.065 602.859 243.065Z" fill="#FBBEBE"/>
<path opacity="0.05" d="M602.859 243.065C602.859 243.065 576.263 236.97 573.784 231.807C571.306 226.644 564.464 215.051 564.464 215.051L567.269 211.516L580.208 221.006C580.208 221.006 595.62 232.484 602.846 233.611C610.073 234.739 602.859 243.065 602.859 243.065Z" fill="black"/>
<path d="M625.856 213.807V227.29H623.534C612.076 227.292 600.807 230.019 590.787 235.214L586.443 237.47L585.276 238.079L577.808 222.365L584.793 216.514H585.152C586.861 216.666 594.25 217.245 597.381 216.258C600.355 215.313 604.046 212.32 612.805 214.429C617.123 215.459 620.808 219.982 624.995 218.568L625.856 213.807Z" fill="#FBBEBE"/>
<path opacity="0.1" d="M649.094 189.274L653.913 194.333V206.603C653.913 206.603 649.818 245.314 636.813 249.593C623.808 253.872 600.596 247.113 600.596 247.113C600.596 247.113 594.596 232.258 597.4 231.362C600.205 230.466 622.184 225.035 622.184 225.035C622.184 225.035 621.877 202.324 626.691 195.57C626.691 195.57 623.56 174.419 634.4 173.968C645.239 173.517 649.094 189.274 649.094 189.274Z" fill="black"/>
<path d="M649.818 189.274L654.637 194.333V206.603C654.637 206.603 650.555 245.314 637.511 249.593C624.467 253.872 601.287 247.113 601.287 247.113C601.287 247.113 595.294 232.258 598.098 231.362C600.903 230.466 622.882 225.035 622.882 225.035C622.882 225.035 622.569 202.324 627.388 195.57C627.388 195.57 624.258 174.419 635.097 173.968C645.937 173.517 649.818 189.274 649.818 189.274Z" fill="#536DFE"/>
<path opacity="0.1" d="M616.177 137.243C616.275 135.762 616.308 134.196 615.629 132.861C614.951 131.526 613.36 130.459 611.807 130.801C609.747 131.252 608.859 133.757 606.838 134.36C605.135 134.866 603.277 133.751 602.468 132.251C601.659 130.752 601.633 129.021 601.627 127.375C601.627 125.498 601.627 123.614 601.627 121.737C601.627 119.689 601.555 117.47 600.205 115.873C598.529 113.868 594.583 112.996 591.948 113.075C590.193 113.094 588.51 113.73 587.233 114.855C585.824 115.971 584.193 116.8 582.269 116.501C581.47 116.388 580.721 116.065 580.11 115.571C579.498 115.077 579.048 114.432 578.813 113.709V113.636C580.86 111.108 583.446 109.003 586.408 107.455C589.369 105.907 592.641 104.95 596.018 104.643C599.395 104.335 602.803 104.685 606.028 105.671C609.253 106.656 612.225 108.255 614.756 110.367C617.287 112.479 619.322 115.058 620.733 117.941C622.145 120.825 622.901 123.95 622.956 127.121C623.01 130.292 622.361 133.438 621.05 136.363C619.738 139.287 617.793 141.926 615.336 144.113C615.754 141.84 616.035 139.546 616.177 137.243Z" fill="black"/>
<path d="M582.256 115.806C581.457 115.692 580.708 115.368 580.096 114.873C579.484 114.378 579.035 113.732 578.8 113.008C578.597 112.283 578.65 111.509 578.421 110.783C577.86 109.016 575.813 108.095 574.508 106.754C571.795 104.06 571.971 99.635 573.895 96.3923C575.447 93.7834 578.461 91.583 581.598 92.0889C583.554 92.4059 585.23 93.7042 587.206 93.82C589.183 93.9358 590.839 92.9362 592.574 92.1987C596.749 90.4314 601.443 90.0424 605.885 91.0954C607.251 91.3518 608.517 91.9477 609.551 92.8204C610.25 93.6437 610.903 94.5002 611.507 95.3865C613.757 98.0624 617.775 98.5866 621.356 99.19C624.936 99.7935 628.98 101.116 630.16 104.335C630.936 106.468 630.16 108.784 629.736 111.003C629.585 111.455 629.618 111.943 629.828 112.374C630.389 113.24 631.784 112.88 632.841 113.087C634.876 113.484 635.397 115.928 635.45 117.866C635.537 120.085 635.602 122.304 635.645 124.522C635.766 125.551 635.624 126.592 635.23 127.56C634.837 128.527 634.204 129.393 633.382 130.088L625.432 139.017C621.903 142.979 618.16 147.593 618.871 152.701C617.201 153.402 615.218 152.049 614.671 150.416C614.123 148.782 614.566 147.027 614.931 145.35C615.575 142.452 615.996 139.515 616.19 136.561C616.288 135.074 616.321 133.513 615.642 132.178C614.964 130.843 613.373 129.74 611.82 130.112C609.759 130.563 608.872 133.068 606.851 133.672C605.155 134.177 603.29 133.062 602.481 131.563C601.672 130.063 601.646 128.332 601.64 126.686V121.042C601.64 119 601.568 116.775 600.218 115.178C598.542 113.173 594.596 112.301 591.961 112.38C590.206 112.401 588.523 113.036 587.246 114.16C585.811 115.276 584.18 116.099 582.256 115.806Z" fill="#7C5C5C"/>
<path opacity="0.1" d="M587.807 186.458L595.346 215.411C595.346 215.411 601.294 215.38 587.807 186.458Z" fill="black"/>
<path opacity="0.1" d="M613.575 181.618C613.575 181.618 603.701 196.734 607.555 212.357L609.394 212.485C609.394 212.485 606.107 205.25 613.575 181.618Z" fill="black"/>
<path opacity="0.1" d="M619.836 267.148C619.836 267.148 631.96 263.399 632.841 272.098C632.841 272.098 630.552 266.136 619.836 267.148Z" fill="black"/>
<path opacity="0.1" d="M584.793 217.209C584.793 217.209 582.387 232.965 586.75 239.268C586.75 239.268 577.932 242.645 565.554 241.968L564.086 217.209H584.793Z" fill="black"/>
<path opacity="0.1" d="M586.443 237.464L585.276 238.073L577.808 222.359L584.793 216.508H585.152C585.041 217.264 583.098 230.795 586.443 237.464Z" fill="black"/>
<path d="M584.793 216.508C584.793 216.508 582.387 232.258 586.75 238.561C586.75 238.561 577.932 241.938 565.554 241.261L557.127 216.508H584.793Z" fill="#536DFE"/>
<path d="M563.962 479.377C563.823 480.499 563.287 481.546 562.441 482.353C561.594 483.16 560.484 483.68 559.286 483.833C552.764 484.747 536.994 487.075 533.015 488.843C527.961 491.092 507.971 489.519 507.006 487.27C506.734 486.361 506.858 485.388 507.351 484.564C508.047 483.188 509.188 482.052 510.612 481.315C511.072 481.068 511.557 480.863 512.06 480.706C515.823 479.529 522.932 477.048 524.856 474.427C524.856 474.427 533.72 467.18 536.244 463.261C536.72 462.491 537.391 461.843 538.199 461.373C539.006 460.903 539.925 460.626 540.874 460.567C542.987 460.475 545.335 461.469 546.294 465.79C546.294 465.79 557.851 471.953 560.975 466.546C560.975 466.546 561.458 474.848 563.375 477.115C563.629 477.437 563.811 477.803 563.912 478.191C564.013 478.579 564.03 478.982 563.962 479.377Z" fill="#A27772"/>
<path opacity="0.1" d="M563.962 479.377C563.823 480.499 563.287 481.546 562.441 482.353C561.594 483.16 560.484 483.68 559.286 483.833C552.764 484.747 536.994 487.075 533.015 488.843C527.961 491.092 507.971 489.519 507.006 487.27C506.734 486.361 506.858 485.388 507.351 484.564C508.047 483.188 509.188 482.052 510.612 481.315C513.873 483.339 521.106 485.314 537.02 482.991C552.197 480.779 559.71 478.609 563.375 477.128C563.627 477.448 563.808 477.811 563.909 478.197C564.01 478.583 564.028 478.984 563.962 479.377Z" fill="black"/>
<g opacity="0.1">
<path opacity="0.1" d="M629.684 111.332V111.222C630.03 109.534 630.545 107.791 630.428 106.108C630.273 107.489 630.025 108.859 629.684 110.21C629.593 110.579 629.593 110.963 629.684 111.332Z" fill="black"/>
<path opacity="0.1" d="M615.623 132.398C616.003 133.209 616.204 134.084 616.216 134.97C616.328 133.748 616.124 132.519 615.623 131.386C614.971 130.039 613.36 128.978 611.807 129.319C609.747 129.771 608.86 132.276 606.838 132.879C605.135 133.385 603.277 132.27 602.461 130.77C601.646 129.271 601.633 127.54 601.627 125.894C601.627 124.01 601.627 122.133 601.627 120.25C601.627 118.208 601.555 115.983 600.205 114.386C598.529 112.38 594.576 111.509 591.948 111.588C590.193 111.607 588.51 112.242 587.233 113.368C585.817 114.489 584.193 115.312 582.269 115.02C581.47 114.905 580.721 114.582 580.109 114.087C579.498 113.592 579.048 112.945 578.813 112.222C578.611 111.497 578.663 110.722 578.434 109.997C577.867 108.229 575.826 107.309 574.521 105.968C573.253 104.662 572.533 102.971 572.493 101.208C572.392 102.248 572.521 103.297 572.869 104.29C573.218 105.282 573.78 106.198 574.521 106.98C575.878 108.321 577.893 109.247 578.434 111.015C578.663 111.734 578.611 112.508 578.813 113.234C579.048 113.957 579.498 114.604 580.109 115.099C580.721 115.594 581.47 115.917 582.269 116.032C584.226 116.324 585.817 115.501 587.233 114.38C588.51 113.254 590.193 112.619 591.948 112.6C594.557 112.521 598.529 113.398 600.205 115.398C601.555 117.007 601.62 119.219 601.627 121.261C601.627 123.145 601.627 125.022 601.627 126.906C601.627 128.576 601.627 130.313 602.461 131.782C603.296 133.251 605.135 134.397 606.838 133.891C608.86 133.281 609.747 130.782 611.807 130.331C613.379 129.996 614.951 131.051 615.623 132.398Z" fill="black"/>
<path opacity="0.1" d="M635.417 126.199C634.978 127.355 634.279 128.411 633.369 129.295C630.721 132.274 628.071 135.25 625.419 138.225C622.073 141.986 618.525 146.338 618.786 151.135C619.027 146.734 622.308 142.729 625.419 139.237L633.369 130.313C634.278 129.425 634.976 128.368 635.417 127.21C635.614 126.412 635.684 125.59 635.626 124.772C635.619 125.254 635.549 125.733 635.417 126.199Z" fill="black"/>
<path opacity="0.1" d="M614.684 149.623C614.555 149.227 614.476 148.818 614.449 148.404C614.38 149.151 614.46 149.903 614.684 150.623C615.231 152.256 617.221 153.603 618.89 152.902C618.845 152.573 618.819 152.244 618.805 151.915C617.123 152.561 615.192 151.232 614.684 149.623Z" fill="black"/>
</g>
<path opacity="0.1" d="M534.633 465.29C534.633 465.29 537.15 469.429 546.268 465.784L534.633 465.29Z" fill="black"/>
<path opacity="0.1" d="M611.749 466.308C611.749 466.308 619.614 474.964 629.528 469.143L611.749 466.308Z" fill="black"/>
<path opacity="0.1" d="M634.647 363.924C634.647 363.924 629.084 367.173 628.908 369.032C628.732 370.891 631.778 367.679 631.778 367.679L634.647 363.924Z" fill="black"/>
<path opacity="0.1" d="M636.858 388.812C634.925 390.316 632.522 391.193 630.01 391.311C625.856 391.482 626.201 396.547 628.915 395.023C631.628 393.499 636.858 388.812 636.858 388.812Z" fill="black"/>
<path opacity="0.1" d="M637.895 392.061C637.895 392.061 635.228 404.312 633.063 401.947L637.895 392.061Z" fill="black"/>
<path d="M95.8536 454.63C95.8536 456.172 95.6709 457.421 95.4427 457.421C95.2144 457.421 95.0253 456.172 95.0253 454.63C95.0253 453.088 95.2601 453.819 95.4883 453.819C95.7166 453.819 95.8536 453.1 95.8536 454.63Z" fill="#FFD037"/>
<path d="M98.1427 456.47C96.6949 457.208 95.4296 457.653 95.3187 457.47C95.2079 457.287 96.297 456.531 97.7449 455.794C99.1928 455.056 98.6188 455.593 98.7297 455.794C98.8406 455.995 99.5906 455.733 98.1427 456.47Z" fill="#FFD037"/>
<path d="M63.6089 454.63C63.6089 456.172 63.7915 457.421 64.0198 457.421C64.248 457.421 64.4372 456.172 64.4372 454.63C64.4372 453.088 64.2024 453.819 63.9741 453.819C63.7458 453.819 63.6089 453.1 63.6089 454.63Z" fill="#FFD037"/>
<path d="M178.504 203.197C177.539 202.92 176.836 202.58 176.395 202.178C175.957 201.771 175.738 201.271 175.738 200.678C175.738 200.006 176.006 199.451 176.541 199.014C177.08 198.572 177.779 198.352 178.639 198.352C179.225 198.352 179.746 198.465 180.203 198.691C180.664 198.918 181.02 199.23 181.27 199.629C181.523 200.027 181.65 200.463 181.65 200.936H180.52C180.52 200.42 180.355 200.016 180.027 199.723C179.699 199.426 179.236 199.277 178.639 199.277C178.084 199.277 177.65 199.4 177.338 199.646C177.029 199.889 176.875 200.227 176.875 200.66C176.875 201.008 177.021 201.303 177.314 201.545C177.611 201.783 178.113 202.002 178.82 202.201C179.531 202.4 180.086 202.621 180.484 202.863C180.887 203.102 181.184 203.381 181.375 203.701C181.57 204.021 181.668 204.398 181.668 204.832C181.668 205.523 181.398 206.078 180.859 206.496C180.32 206.91 179.6 207.117 178.697 207.117C178.111 207.117 177.564 207.006 177.057 206.783C176.549 206.557 176.156 206.248 175.879 205.857C175.605 205.467 175.469 205.023 175.469 204.527H176.6C176.6 205.043 176.789 205.451 177.168 205.752C177.551 206.049 178.061 206.197 178.697 206.197C179.291 206.197 179.746 206.076 180.062 205.834C180.379 205.592 180.537 205.262 180.537 204.844C180.537 204.426 180.391 204.104 180.098 203.877C179.805 203.646 179.273 203.42 178.504 203.197ZM184.416 199.125V200.66H185.6V201.498H184.416V205.43C184.416 205.684 184.469 205.875 184.574 206.004C184.68 206.129 184.859 206.191 185.113 206.191C185.238 206.191 185.41 206.168 185.629 206.121V207C185.344 207.078 185.066 207.117 184.797 207.117C184.312 207.117 183.947 206.971 183.701 206.678C183.455 206.385 183.332 205.969 183.332 205.43V201.498H182.178V200.66H183.332V199.125H184.416ZM190.785 207C190.723 206.875 190.672 206.652 190.633 206.332C190.129 206.855 189.527 207.117 188.828 207.117C188.203 207.117 187.689 206.941 187.287 206.59C186.889 206.234 186.689 205.785 186.689 205.242C186.689 204.582 186.939 204.07 187.439 203.707C187.943 203.34 188.65 203.156 189.561 203.156H190.615V202.658C190.615 202.279 190.502 201.979 190.275 201.756C190.049 201.529 189.715 201.416 189.273 201.416C188.887 201.416 188.562 201.514 188.301 201.709C188.039 201.904 187.908 202.141 187.908 202.418H186.818C186.818 202.102 186.93 201.797 187.152 201.504C187.379 201.207 187.684 200.973 188.066 200.801C188.453 200.629 188.877 200.543 189.338 200.543C190.068 200.543 190.641 200.727 191.055 201.094C191.469 201.457 191.684 201.959 191.699 202.6V205.518C191.699 206.1 191.773 206.562 191.922 206.906V207H190.785ZM188.986 206.174C189.326 206.174 189.648 206.086 189.953 205.91C190.258 205.734 190.479 205.506 190.615 205.225V203.924H189.766C188.438 203.924 187.773 204.312 187.773 205.09C187.773 205.43 187.887 205.695 188.113 205.887C188.34 206.078 188.631 206.174 188.986 206.174ZM194.424 200.66L194.459 201.457C194.943 200.848 195.576 200.543 196.357 200.543C197.697 200.543 198.373 201.299 198.385 202.811V207H197.301V202.805C197.297 202.348 197.191 202.01 196.984 201.791C196.781 201.572 196.463 201.463 196.029 201.463C195.678 201.463 195.369 201.557 195.104 201.744C194.838 201.932 194.631 202.178 194.482 202.482V207H193.398V200.66H194.424ZM199.756 203.777C199.756 202.805 199.986 202.023 200.447 201.434C200.908 200.84 201.512 200.543 202.258 200.543C203 200.543 203.588 200.797 204.021 201.305V198H205.105V207H204.109L204.057 206.32C203.623 206.852 203.02 207.117 202.246 207.117C201.512 207.117 200.912 206.816 200.447 206.215C199.986 205.613 199.756 204.828 199.756 203.859V203.777ZM200.84 203.9C200.84 204.619 200.988 205.182 201.285 205.588C201.582 205.994 201.992 206.197 202.516 206.197C203.203 206.197 203.705 205.889 204.021 205.271V202.359C203.697 201.762 203.199 201.463 202.527 201.463C201.996 201.463 201.582 201.668 201.285 202.078C200.988 202.488 200.84 203.096 200.84 203.9ZM207.971 207H206.887V200.66H207.971V207ZM206.799 198.979C206.799 198.803 206.852 198.654 206.957 198.533C207.066 198.412 207.227 198.352 207.438 198.352C207.648 198.352 207.809 198.412 207.918 198.533C208.027 198.654 208.082 198.803 208.082 198.979C208.082 199.154 208.027 199.301 207.918 199.418C207.809 199.535 207.648 199.594 207.438 199.594C207.227 199.594 207.066 199.535 206.957 199.418C206.852 199.301 206.799 199.154 206.799 198.979ZM210.736 200.66L210.771 201.457C211.256 200.848 211.889 200.543 212.67 200.543C214.01 200.543 214.686 201.299 214.697 202.811V207H213.613V202.805C213.609 202.348 213.504 202.01 213.297 201.791C213.094 201.572 212.775 201.463 212.342 201.463C211.99 201.463 211.682 201.557 211.416 201.744C211.15 201.932 210.943 202.178 210.795 202.482V207H209.711V200.66H210.736ZM216.074 203.777C216.074 202.789 216.303 202.004 216.76 201.422C217.217 200.836 217.822 200.543 218.576 200.543C219.35 200.543 219.953 200.816 220.387 201.363L220.439 200.66H221.43V206.848C221.43 207.668 221.186 208.314 220.697 208.787C220.213 209.26 219.561 209.496 218.74 209.496C218.283 209.496 217.836 209.398 217.398 209.203C216.961 209.008 216.627 208.74 216.396 208.4L216.959 207.75C217.424 208.324 217.992 208.611 218.664 208.611C219.191 208.611 219.602 208.463 219.895 208.166C220.191 207.869 220.34 207.451 220.34 206.912V206.367C219.906 206.867 219.314 207.117 218.564 207.117C217.822 207.117 217.221 206.818 216.76 206.221C216.303 205.623 216.074 204.809 216.074 203.777ZM217.164 203.9C217.164 204.615 217.311 205.178 217.604 205.588C217.896 205.994 218.307 206.197 218.834 206.197C219.518 206.197 220.02 205.887 220.34 205.266V202.371C220.008 201.766 219.51 201.463 218.846 201.463C218.318 201.463 217.906 201.668 217.609 202.078C217.312 202.488 217.164 203.096 217.164 203.9ZM226.762 205.318C226.762 205.025 226.65 204.799 226.428 204.639C226.209 204.475 225.824 204.334 225.273 204.217C224.727 204.1 224.291 203.959 223.967 203.795C223.646 203.631 223.408 203.436 223.252 203.209C223.1 202.982 223.023 202.713 223.023 202.4C223.023 201.881 223.242 201.441 223.68 201.082C224.121 200.723 224.684 200.543 225.367 200.543C226.086 200.543 226.668 200.729 227.113 201.1C227.562 201.471 227.787 201.945 227.787 202.523H226.697C226.697 202.227 226.57 201.971 226.316 201.756C226.066 201.541 225.75 201.434 225.367 201.434C224.973 201.434 224.664 201.52 224.441 201.691C224.219 201.863 224.107 202.088 224.107 202.365C224.107 202.627 224.211 202.824 224.418 202.957C224.625 203.09 224.998 203.217 225.537 203.338C226.08 203.459 226.52 203.604 226.855 203.771C227.191 203.939 227.439 204.143 227.6 204.381C227.764 204.615 227.846 204.902 227.846 205.242C227.846 205.809 227.619 206.264 227.166 206.607C226.713 206.947 226.125 207.117 225.402 207.117C224.895 207.117 224.445 207.027 224.055 206.848C223.664 206.668 223.357 206.418 223.135 206.098C222.916 205.773 222.807 205.424 222.807 205.049H223.891C223.91 205.412 224.055 205.701 224.324 205.916C224.598 206.127 224.957 206.232 225.402 206.232C225.812 206.232 226.141 206.15 226.387 205.986C226.637 205.818 226.762 205.596 226.762 205.318Z" fill="black"/>
<path d="M282.504 204.197C281.539 203.92 280.836 203.58 280.395 203.178C279.957 202.771 279.738 202.271 279.738 201.678C279.738 201.006 280.006 200.451 280.541 200.014C281.08 199.572 281.779 199.352 282.639 199.352C283.225 199.352 283.746 199.465 284.203 199.691C284.664 199.918 285.02 200.23 285.27 200.629C285.523 201.027 285.65 201.463 285.65 201.936H284.52C284.52 201.42 284.355 201.016 284.027 200.723C283.699 200.426 283.236 200.277 282.639 200.277C282.084 200.277 281.65 200.4 281.338 200.646C281.029 200.889 280.875 201.227 280.875 201.66C280.875 202.008 281.021 202.303 281.314 202.545C281.611 202.783 282.113 203.002 282.82 203.201C283.531 203.4 284.086 203.621 284.484 203.863C284.887 204.102 285.184 204.381 285.375 204.701C285.57 205.021 285.668 205.398 285.668 205.832C285.668 206.523 285.398 207.078 284.859 207.496C284.32 207.91 283.6 208.117 282.697 208.117C282.111 208.117 281.564 208.006 281.057 207.783C280.549 207.557 280.156 207.248 279.879 206.857C279.605 206.467 279.469 206.023 279.469 205.527H280.6C280.6 206.043 280.789 206.451 281.168 206.752C281.551 207.049 282.061 207.197 282.697 207.197C283.291 207.197 283.746 207.076 284.062 206.834C284.379 206.592 284.537 206.262 284.537 205.844C284.537 205.426 284.391 205.104 284.098 204.877C283.805 204.646 283.273 204.42 282.504 204.197ZM288.416 200.125V201.66H289.6V202.498H288.416V206.43C288.416 206.684 288.469 206.875 288.574 207.004C288.68 207.129 288.859 207.191 289.113 207.191C289.238 207.191 289.41 207.168 289.629 207.121V208C289.344 208.078 289.066 208.117 288.797 208.117C288.312 208.117 287.947 207.971 287.701 207.678C287.455 207.385 287.332 206.969 287.332 206.43V202.498H286.178V201.66H287.332V200.125H288.416ZM294.785 208C294.723 207.875 294.672 207.652 294.633 207.332C294.129 207.855 293.527 208.117 292.828 208.117C292.203 208.117 291.689 207.941 291.287 207.59C290.889 207.234 290.689 206.785 290.689 206.242C290.689 205.582 290.939 205.07 291.439 204.707C291.943 204.34 292.65 204.156 293.561 204.156H294.615V203.658C294.615 203.279 294.502 202.979 294.275 202.756C294.049 202.529 293.715 202.416 293.273 202.416C292.887 202.416 292.562 202.514 292.301 202.709C292.039 202.904 291.908 203.141 291.908 203.418H290.818C290.818 203.102 290.93 202.797 291.152 202.504C291.379 202.207 291.684 201.973 292.066 201.801C292.453 201.629 292.877 201.543 293.338 201.543C294.068 201.543 294.641 201.727 295.055 202.094C295.469 202.457 295.684 202.959 295.699 203.6V206.518C295.699 207.1 295.773 207.562 295.922 207.906V208H294.785ZM292.986 207.174C293.326 207.174 293.648 207.086 293.953 206.91C294.258 206.734 294.479 206.506 294.615 206.225V204.924H293.766C292.438 204.924 291.773 205.312 291.773 206.09C291.773 206.43 291.887 206.695 292.113 206.887C292.34 207.078 292.631 207.174 292.986 207.174ZM298.869 200.125V201.66H300.053V202.498H298.869V206.43C298.869 206.684 298.922 206.875 299.027 207.004C299.133 207.129 299.312 207.191 299.566 207.191C299.691 207.191 299.863 207.168 300.082 207.121V208C299.797 208.078 299.52 208.117 299.25 208.117C298.766 208.117 298.4 207.971 298.154 207.678C297.908 207.385 297.785 206.969 297.785 206.43V202.498H296.631V201.66H297.785V200.125H298.869ZM305.016 206.318C305.016 206.025 304.904 205.799 304.682 205.639C304.463 205.475 304.078 205.334 303.527 205.217C302.98 205.1 302.545 204.959 302.221 204.795C301.9 204.631 301.662 204.436 301.506 204.209C301.354 203.982 301.277 203.713 301.277 203.4C301.277 202.881 301.496 202.441 301.934 202.082C302.375 201.723 302.938 201.543 303.621 201.543C304.34 201.543 304.922 201.729 305.367 202.1C305.816 202.471 306.041 202.945 306.041 203.523H304.951C304.951 203.227 304.824 202.971 304.57 202.756C304.32 202.541 304.004 202.434 303.621 202.434C303.227 202.434 302.918 202.52 302.695 202.691C302.473 202.863 302.361 203.088 302.361 203.365C302.361 203.627 302.465 203.824 302.672 203.957C302.879 204.09 303.252 204.217 303.791 204.338C304.334 204.459 304.773 204.604 305.109 204.771C305.445 204.939 305.693 205.143 305.854 205.381C306.018 205.615 306.1 205.902 306.1 206.242C306.1 206.809 305.873 207.264 305.42 207.607C304.967 207.947 304.379 208.117 303.656 208.117C303.148 208.117 302.699 208.027 302.309 207.848C301.918 207.668 301.611 207.418 301.389 207.098C301.17 206.773 301.061 206.424 301.061 206.049H302.145C302.164 206.412 302.309 206.701 302.578 206.916C302.852 207.127 303.211 207.232 303.656 207.232C304.066 207.232 304.395 207.15 304.641 206.986C304.891 206.818 305.016 206.596 305.016 206.318Z" fill="black"/>
<path d="M365.504 204.197C364.539 203.92 363.836 203.58 363.395 203.178C362.957 202.771 362.738 202.271 362.738 201.678C362.738 201.006 363.006 200.451 363.541 200.014C364.08 199.572 364.779 199.352 365.639 199.352C366.225 199.352 366.746 199.465 367.203 199.691C367.664 199.918 368.02 200.23 368.27 200.629C368.523 201.027 368.65 201.463 368.65 201.936H367.52C367.52 201.42 367.355 201.016 367.027 200.723C366.699 200.426 366.236 200.277 365.639 200.277C365.084 200.277 364.65 200.4 364.338 200.646C364.029 200.889 363.875 201.227 363.875 201.66C363.875 202.008 364.021 202.303 364.314 202.545C364.611 202.783 365.113 203.002 365.82 203.201C366.531 203.4 367.086 203.621 367.484 203.863C367.887 204.102 368.184 204.381 368.375 204.701C368.57 205.021 368.668 205.398 368.668 205.832C368.668 206.523 368.398 207.078 367.859 207.496C367.32 207.91 366.6 208.117 365.697 208.117C365.111 208.117 364.564 208.006 364.057 207.783C363.549 207.557 363.156 207.248 362.879 206.857C362.605 206.467 362.469 206.023 362.469 205.527H363.6C363.6 206.043 363.789 206.451 364.168 206.752C364.551 207.049 365.061 207.197 365.697 207.197C366.291 207.197 366.746 207.076 367.062 206.834C367.379 206.592 367.537 206.262 367.537 205.844C367.537 205.426 367.391 205.104 367.098 204.877C366.805 204.646 366.273 204.42 365.504 204.197ZM372.488 207.232C372.875 207.232 373.213 207.115 373.502 206.881C373.791 206.646 373.951 206.354 373.982 206.002H375.008C374.988 206.365 374.863 206.711 374.633 207.039C374.402 207.367 374.094 207.629 373.707 207.824C373.324 208.02 372.918 208.117 372.488 208.117C371.625 208.117 370.938 207.83 370.426 207.256C369.918 206.678 369.664 205.889 369.664 204.889V204.707C369.664 204.09 369.777 203.541 370.004 203.061C370.23 202.58 370.555 202.207 370.977 201.941C371.402 201.676 371.904 201.543 372.482 201.543C373.193 201.543 373.783 201.756 374.252 202.182C374.725 202.607 374.977 203.16 375.008 203.84H373.982C373.951 203.43 373.795 203.094 373.514 202.832C373.236 202.566 372.893 202.434 372.482 202.434C371.932 202.434 371.504 202.633 371.199 203.031C370.898 203.426 370.748 203.998 370.748 204.748V204.953C370.748 205.684 370.898 206.246 371.199 206.641C371.5 207.035 371.93 207.232 372.488 207.232ZM377.311 202.428C377.791 201.838 378.416 201.543 379.186 201.543C380.525 201.543 381.201 202.299 381.213 203.811V208H380.129V203.805C380.125 203.348 380.02 203.01 379.812 202.791C379.609 202.572 379.291 202.463 378.857 202.463C378.506 202.463 378.197 202.557 377.932 202.744C377.666 202.932 377.459 203.178 377.311 203.482V208H376.227V199H377.311V202.428ZM385.467 208.117C384.607 208.117 383.908 207.836 383.369 207.273C382.83 206.707 382.561 205.951 382.561 205.006V204.807C382.561 204.178 382.68 203.617 382.918 203.125C383.16 202.629 383.496 202.242 383.926 201.965C384.359 201.684 384.828 201.543 385.332 201.543C386.156 201.543 386.797 201.814 387.254 202.357C387.711 202.9 387.939 203.678 387.939 204.689V205.141H383.645C383.66 205.766 383.842 206.271 384.189 206.658C384.541 207.041 384.986 207.232 385.525 207.232C385.908 207.232 386.232 207.154 386.498 206.998C386.764 206.842 386.996 206.635 387.195 206.377L387.857 206.893C387.326 207.709 386.529 208.117 385.467 208.117ZM385.332 202.434C384.895 202.434 384.527 202.594 384.23 202.914C383.934 203.23 383.75 203.676 383.68 204.25H386.855V204.168C386.824 203.617 386.676 203.191 386.41 202.891C386.145 202.586 385.785 202.434 385.332 202.434ZM388.936 204.777C388.936 203.805 389.166 203.023 389.627 202.434C390.088 201.84 390.691 201.543 391.438 201.543C392.18 201.543 392.768 201.797 393.201 202.305V199H394.285V208H393.289L393.236 207.32C392.803 207.852 392.199 208.117 391.426 208.117C390.691 208.117 390.092 207.816 389.627 207.215C389.166 206.613 388.936 205.828 388.936 204.859V204.777ZM390.02 204.9C390.02 205.619 390.168 206.182 390.465 206.588C390.762 206.994 391.172 207.197 391.695 207.197C392.383 207.197 392.885 206.889 393.201 206.271V203.359C392.877 202.762 392.379 202.463 391.707 202.463C391.176 202.463 390.762 202.668 390.465 203.078C390.168 203.488 390.02 204.096 390.02 204.9ZM399.887 207.373C399.465 207.869 398.846 208.117 398.029 208.117C397.354 208.117 396.838 207.922 396.482 207.531C396.131 207.137 395.953 206.555 395.949 205.785V201.66H397.033V205.756C397.033 206.717 397.424 207.197 398.205 207.197C399.033 207.197 399.584 206.889 399.857 206.271V201.66H400.941V208H399.91L399.887 207.373ZM403.771 208H402.688V199H403.771V208ZM408.143 208.117C407.283 208.117 406.584 207.836 406.045 207.273C405.506 206.707 405.236 205.951 405.236 205.006V204.807C405.236 204.178 405.355 203.617 405.594 203.125C405.836 202.629 406.172 202.242 406.602 201.965C407.035 201.684 407.504 201.543 408.008 201.543C408.832 201.543 409.473 201.814 409.93 202.357C410.387 202.9 410.615 203.678 410.615 204.689V205.141H406.32C406.336 205.766 406.518 206.271 406.865 206.658C407.217 207.041 407.662 207.232 408.201 207.232C408.584 207.232 408.908 207.154 409.174 206.998C409.439 206.842 409.672 206.635 409.871 206.377L410.533 206.893C410.002 207.709 409.205 208.117 408.143 208.117ZM408.008 202.434C407.57 202.434 407.203 202.594 406.906 202.914C406.609 203.23 406.426 203.676 406.355 204.25H409.531V204.168C409.5 203.617 409.352 203.191 409.086 202.891C408.82 202.586 408.461 202.434 408.008 202.434Z" fill="black"/>
</g>
<defs>
<linearGradient id="paint0_linear" x1="144909" y1="336985" x2="144909" y2="71643.9" gradientUnits="userSpaceOnUse">
<stop stop-color="#808080" stop-opacity="0.25"/>
<stop offset="0.54" stop-color="#808080" stop-opacity="0.12"/>
<stop offset="1" stop-color="#808080" stop-opacity="0.1"/>
</linearGradient>
<clipPath id="clip0">
<rect width="705" height="510" fill="white"/>
</clipPath>
</defs>
</svg>
