<svg width="710" height="500" viewBox="0 0 710 500" fill="none" xmlns="http://www.w3.org/2000/svg">
<g clip-path="url(#clip0)">
<path opacity="0.1" d="M710.007 168.423C710.084 93.7289 660.646 32.0869 599.076 30.1684C574.305 29.3753 549.995 38.3858 529.827 55.8357C509.658 73.2856 494.73 98.2247 487.302 126.877C471.579 123.784 455.497 124.684 440.076 129.519C384.306 147.1 325.753 147.1 269.983 129.519C254.561 124.684 238.479 123.784 222.756 126.877C215.328 98.2247 200.4 73.2856 180.232 55.8357C160.064 38.3858 135.754 29.3753 110.982 30.1684C49.3543 32.0869 -0.0519345 93.7367 0.05186 168.423C0.0718071 192.981 5.49557 217.089 15.764 238.261C26.0324 259.433 40.7739 276.902 58.4687 288.868C47.2022 310.753 41.2406 336.037 41.2648 361.832C41.2648 437.587 92.2279 499.67 154.732 499.992C177.247 500.157 199.293 492.192 218.059 477.112C238.718 493.642 263.256 501.571 287.963 499.7C312.67 497.829 336.203 486.26 355.003 466.742C373.808 486.275 397.351 497.853 422.069 499.724C446.787 501.595 471.335 493.657 491.999 477.112C510.762 492.203 532.809 500.179 555.327 500.024C617.831 499.701 668.813 437.619 668.794 361.864C668.818 336.068 662.856 310.785 651.59 288.9C669.288 276.931 684.032 259.457 694.301 238.279C704.57 217.101 709.991 192.987 710.007 168.423V168.423Z" fill="#536DFE"/>
<line y1="-3.5" x2="45.9581" y2="-3.5" transform="matrix(0.988075 -0.153972 0.105489 0.99442 127.148 218.578)" stroke="#2F2E41" stroke-width="7"/>
<path d="M366.849 218.971L375.282 259.856" stroke="black"/>
<path d="M200.9 183.708L193.312 196.699C187.871 206.026 181.533 216.07 172.658 217.83C172.109 220.267 173.939 222.418 175.561 223.812C198.637 243.581 225.531 256.237 253.102 257.854C256.652 258.069 261.031 257.416 262.386 253.115C263.605 249.22 261.373 244.983 258.994 242.139C255.426 237.862 250.845 233.696 250.497 227.388C250.265 223.151 252.095 219.264 253.157 215.241C254.602 209.761 254.633 203.843 254.651 198.053C254.651 195.966 254.651 193.808 254.041 191.88C253.447 190.276 252.618 188.839 251.601 187.651C243.324 176.969 232.155 171.721 221.609 166.073C218.071 164.17 211.568 157.965 208.47 163.294C207.018 165.787 207.036 170.462 205.969 173.441C204.559 177.085 202.86 180.527 200.9 183.708V183.708Z" fill="#D29D9D"/>
<path d="M254 198C283.823 198 308 170.018 308 135.5C308 100.982 283.823 73 254 73C224.177 73 200 100.982 200 135.5C200 170.018 224.177 198 254 198Z" fill="#D29D9D"/>
<path d="M203.515 169.012C209.075 163.799 210.145 159.396 211.527 151.046C212.39 145.818 212.48 139.874 215.62 136.108C221.997 128.528 234.355 136.996 241.115 129.92C245.331 125.517 245.117 117.128 249.048 112.355C251.935 108.841 256.366 108.117 260.459 107.897C266.634 107.567 272.82 107.952 278.935 109.045C283.301 109.831 287.647 110.963 292.058 110.924C300.881 110.846 309.159 106.097 317.105 101.45C316.477 101.406 315.871 101.159 315.348 100.734C314.826 100.31 314.406 99.7233 314.134 99.0361C317.21 97.0681 320.394 95.3579 323.664 93.9176C322.807 90.7254 317.06 93.2729 316.768 89.9234C316.775 89.0528 317.043 88.2148 317.52 87.5647L323.125 77.8781C317.799 79.5292 312.422 75.0633 309.068 69.7797C305.714 64.4961 303.463 58.1668 299.525 53.5122C291.643 44.2109 279.357 43.9592 268.387 44.2895L248.062 44.8949C238.63 45.1779 229.094 45.4846 219.96 48.3623C215.808 49.6674 211.715 51.5072 208.225 54.5736C203.839 58.3869 200.609 63.8435 196.457 68.0185C190.898 73.6087 183.658 76.9739 179.519 84.1445C176.928 88.6909 175.874 94.2681 176.574 99.728C177.385 105.829 180.337 111.231 181.53 117.246C183.567 127.569 180.233 138.584 182.179 148.947C183.613 156.715 187.816 163.241 191.91 169.468C192.85 170.899 193.979 172.456 195.484 172.535C196.41 172.461 197.314 172.164 198.144 171.662" fill="#2F2E41"/>
<g opacity="0.1">
<path opacity="0.1" d="M203.295 138.467C200.155 142.201 200.051 148.145 199.201 153.405C197.904 161.158 196.898 165.506 192.318 170.255C193.155 171.442 194.141 172.527 195.393 172.613C196.319 172.539 197.223 172.243 198.053 171.741L203.515 169.036C209.075 163.823 210.145 159.42 211.527 151.07C212.39 145.842 212.48 139.897 215.62 136.131C215.893 135.811 216.183 135.514 216.489 135.243C211.559 134.921 206.616 134.52 203.295 138.467Z" fill="black"/>
<path opacity="0.1" d="M314.134 99.0361C317.21 97.0681 320.395 95.3579 323.664 93.9176C322.807 90.7254 317.06 93.2729 316.768 89.9234C316.775 89.0528 317.043 88.2148 317.52 87.5647L323.125 77.8781C317.799 79.5292 312.422 75.0633 309.068 69.7797C305.714 64.4961 303.463 58.1668 299.525 53.5122C291.643 44.2109 279.357 43.9592 268.387 44.2895L248.062 44.8949C238.935 45.1701 229.717 45.4689 220.862 48.0949C225.799 47.5603 230.781 47.403 235.737 47.2536L256.061 46.6482C267.057 46.318 279.344 46.5696 287.199 55.8709C291.137 60.5255 293.388 66.8784 296.742 72.1384C300.096 77.3985 305.474 81.8879 310.8 80.2368L305.195 89.9234C304.717 90.5736 304.45 91.4115 304.442 92.2822C304.734 95.6316 310.482 93.0684 311.338 96.2763C308.069 97.7166 304.885 99.4268 301.809 101.395C302.083 102.089 302.506 102.681 303.035 103.107C303.564 103.533 304.178 103.778 304.812 103.816C300.367 106.559 295.769 108.923 291.053 110.893H292.091C300.913 110.814 309.191 106.065 317.138 101.418C316.507 101.384 315.895 101.145 315.367 100.726C314.838 100.307 314.413 99.723 314.134 99.0361V99.0361Z" fill="black"/>
<path opacity="0.1" d="M248.134 110.256C244.04 110.476 239.61 111.199 236.723 114.714C232.792 119.486 233.006 127.876 228.789 132.279C228.608 132.473 228.417 132.654 228.218 132.821C232.954 133.112 237.735 133.458 241.115 129.92C245.331 125.517 245.117 117.128 249.048 112.355C249.787 111.469 250.633 110.726 251.559 110.154C250.417 110.169 249.263 110.193 248.134 110.256Z" fill="black"/>
</g>
<g clip-path="url(#clip1)">
<path d="M403.871 1.05987C409.467 3.0712 413.579 4.36417 414.455 4.36417C414.927 4.36417 416.141 4.79518 417.084 5.36985C418.028 5.87266 419.983 6.51916 421.466 6.87832C422.882 7.16566 424.365 7.59665 424.77 7.81214C425.511 8.31498 429.758 9.67981 434.208 10.901C435.691 11.2601 437.511 11.8348 438.252 12.194C438.994 12.4813 440.949 13.1996 442.634 13.7743L445.668 14.7799L445.6 18.3716C445.533 21.6759 444.791 27.2071 442.23 44.2314C441.758 47.7512 441.016 53.1386 440.612 56.0838C440.275 59.029 439.668 62.9078 439.263 64.7037C438.926 66.4996 438.455 69.4446 438.252 71.3123C437.983 73.2519 437.646 74.7603 437.376 74.7603C437.106 74.7603 436.23 71.3123 435.488 67.0024C432.792 52.7795 431.511 50.3371 425.444 47.0329C422.882 45.668 420.253 44.2314 419.714 43.8721C415.264 41.2862 413.579 40.7116 413.107 41.5017C412.837 42.0045 412.972 46.5301 413.377 51.5582C414.725 65.9248 414.59 72.3181 412.972 75.1195L411.624 77.4182L403.062 75.7661C392.006 73.6829 390.456 73.1081 390.995 70.9532C391.265 70.0911 391.737 65.7813 392.074 61.4712C392.478 57.0894 393.018 51.6302 393.355 49.2598C393.759 46.8891 394.231 42.0045 394.433 38.4847C394.636 34.8932 395.108 30.224 395.445 28.0689C395.782 25.914 396.388 20.3828 396.86 15.8574C398.276 0.844374 398.343 0.413378 399.826 0.269712C400.568 0.197879 402.388 0.557038 403.871 1.05987Z" fill="#FF0000"/>
</g>
<path d="M325.856 215.978L321.093 211.443L373.264 221.542L429.609 219.642C429.609 219.642 404.758 106.291 405.454 103.382C406.151 100.474 401.385 11.8063 429.446 35.7509C457.506 59.6954 429.897 104.437 429.897 104.437C429.897 104.437 485.599 224.647 447.694 249.961C409.79 275.275 344.527 268.283 342.015 265.199C339.505 262.113 325.856 215.978 325.856 215.978Z" fill="#D29D9D"/>
<g clip-path="url(#clip2)">
<path d="M91.7944 293.735C92.992 293.391 94.322 293.185 95.6916 293.131C97.0612 293.077 98.4374 293.176 99.7238 293.422C101.011 293.668 102.177 294.054 103.141 294.554C104.105 295.055 104.844 295.656 105.306 296.317C108.559 300.888 111.856 310.418 110.681 330.231C108.52 366.669 107.44 391.513 107.44 391.513V446.722C107.44 446.722 154.974 499.723 129.046 499.723C103.118 499.723 84.753 457.764 84.753 457.764C84.753 457.764 60.986 394.274 68.5484 383.232C68.5484 383.232 47.2249 306.951 91.7944 293.735Z" fill="#D29D9D"/>
<line y1="-2.5" x2="59.1717" y2="-2.5" transform="matrix(0.811282 0.584654 -0.440439 0.897782 63.5742 311.355)" stroke="#2F2E41" stroke-width="5"/>
<path d="M71.3588 312.534L82.3869 320.004L97.6318 289.733L87.2523 281.871L71.3588 312.534Z" fill="white"/>
<path d="M103.47 335.729L93.7395 327.866L108.336 298.775L117.418 308.21L103.47 335.729Z" fill="white"/>
<path d="M71.3588 312.534L82.3869 320.004L97.6318 289.733L87.2523 281.871L71.3588 312.534Z" stroke="white"/>
<path d="M103.47 335.729L93.7395 327.866L108.336 298.775L117.418 308.21L103.47 335.729Z" stroke="white"/>
</g>
<path d="M251.377 204.748C251.52 204.933 254.732 205.303 258.445 205.674C265.728 206.352 271.011 207.648 270.655 208.759C270.583 209.13 269.727 210.487 268.799 211.722C267.941 212.956 266.227 215.548 265.013 217.399L262.873 220.794L262.371 263.377C262.158 286.766 261.659 316.204 261.23 328.732C260.444 355.578 260.159 415.749 260.873 416.675C261.087 417.107 264.087 417.354 268.013 417.354C273.724 417.354 274.867 417.169 275.367 416.244C276.365 414.639 278.294 341.26 279.792 249.861C280.507 206.908 280.437 207.71 283.721 208.451C284.506 208.636 288.362 208.883 292.288 209.068C296.215 209.253 305.71 209.808 313.35 210.302C332.484 211.536 349.478 212.524 357.83 212.894C365.542 213.264 365.327 213.141 366.47 217.77C367.113 220.3 366.756 220.362 354.403 219.806C335.984 218.942 300.499 218.078 299.356 218.448C298.285 218.757 298.214 219.683 298.571 225.607C298.856 229.372 299.356 232.704 299.714 233.013C300.071 233.322 306.925 233.26 316.634 232.89C325.63 232.519 341.195 232.026 351.192 231.841L369.398 231.409L370.61 235.975C371.325 238.506 372.04 241.838 372.253 243.443C372.682 246.158 372.539 246.405 371.039 246.652C368.112 247.146 360.329 247.701 346.551 248.257C339.054 248.565 329.772 249.12 325.846 249.429C321.917 249.799 315.063 250.046 310.637 250.108C299.642 250.108 299.855 249.923 300.284 260.661C300.427 265.228 300.713 269.301 300.856 269.671C301.285 270.721 305.211 270.659 310.708 269.61C316.634 268.437 323.631 267.265 327.986 266.771C331.628 266.277 337.411 265.351 343.48 264.241C345.337 263.87 348.55 263.377 350.62 263.068C354.975 262.513 360.615 261.587 368.47 260.167C374.823 258.995 376.18 259.303 376.18 261.649C376.18 262.574 376.751 265.29 377.394 267.573C378.894 272.449 378.821 272.51 372.61 273.621C370.467 273.991 366.756 274.67 364.399 275.102C362.043 275.596 357.545 276.398 354.403 276.954C351.262 277.509 346.265 278.373 343.337 278.867C334.198 280.533 328.914 281.459 322.988 282.508C319.847 283.063 315.279 283.928 312.85 284.421C310.422 284.915 307.496 285.285 306.21 285.285C304.998 285.285 303.355 285.594 302.569 285.902C301.285 286.52 301.212 287.445 301.212 306.145C301.212 316.883 300.856 329.041 300.499 333.114C300.071 337.187 299.642 343.173 299.428 346.382C298.999 352.554 297.356 367.798 296.144 376.622C295.715 379.523 295.143 384.213 294.787 387.115C294.431 389.953 293.859 393.965 293.43 396.062C292.002 403.406 291.145 408.467 290.502 413.158C290.075 415.749 289.504 418.588 289.075 419.514C288.575 420.625 288.646 421.737 289.361 423.403C291.217 427.968 292.216 430.684 292.788 433.092C293.074 434.45 293.786 437.474 294.358 439.88C295.429 444.385 296.287 448.519 298.001 457.777C300.141 469.688 300.713 472.773 301.212 477.526C301.855 482.833 302.926 490.856 304.14 499.62C304.569 502.582 305.211 508.136 305.497 511.962C305.853 515.789 306.425 521.899 306.852 525.663C307.78 533.994 309.423 551.275 309.423 552.51C309.423 553.003 308.425 553.558 306.925 553.866C296.287 555.842 289.504 557.015 285.505 557.446C282.935 557.754 279.08 558.248 276.937 558.619C274.795 558.927 269.797 559.668 265.871 560.223C261.944 560.779 256.947 561.52 254.805 561.828C251.306 562.382 236.169 564.173 232.314 564.419C231.1 564.544 230.743 563.926 230.029 560.841C229.529 558.804 228.815 553.805 228.458 549.732C227.53 540.29 226.459 531.28 225.103 522.268C224.532 518.381 224.032 514.185 224.032 513.012C224.032 511.839 223.746 510.296 223.389 509.617C222.889 508.445 222.818 508.507 222.461 509.926C222.033 511.717 220.819 527.083 219.748 544.487C219.391 551.089 218.82 557.877 218.534 559.606C218.034 562.507 217.892 562.753 215.178 563.494C213.679 563.926 210.609 564.544 208.396 564.852C206.254 565.098 200.899 566.086 196.615 567.012C192.26 567.876 186.334 569.049 183.407 569.543C180.479 570.036 175.767 570.838 173.054 571.332C161.702 573.306 160.06 573.615 156.204 574.048C154.062 574.356 151.135 574.85 149.778 575.22C148.422 575.591 144.995 576.208 142.067 576.639C134.642 577.626 135.285 578.613 132.786 562.074C130.644 547.88 130.216 539.24 130.216 513.012C130.216 485.611 130.715 476.785 133.143 462.405C135.428 448.952 138.212 438.955 142.496 429.203C144.138 425.5 144.138 425.069 143.424 418.712C142.353 409.332 140.711 397.235 139.497 388.966C138.926 385.078 138.426 380.45 138.426 378.783C138.426 377.055 138.069 374.463 137.641 372.92C137.284 371.439 136.641 367.242 136.284 363.663C135.57 355.887 134.357 346.444 133.357 340.458C133 338.051 132.357 332.99 132 329.226C131.358 322.129 130.216 317.377 129.216 317.377C128.859 317.377 126.788 320.524 124.504 324.289C116.436 338.051 113.366 342.988 112.366 343.852C111.438 344.655 111.081 344.593 109.367 343.235C108.225 342.371 106.155 341.013 104.727 340.149C103.227 339.347 102.013 338.483 102.013 338.236C102.013 337.989 103.156 335.582 104.584 332.99C106.012 330.337 107.939 326.634 108.939 324.782C109.867 322.931 111.295 320.277 112.009 318.92C112.723 317.562 114.151 314.785 115.222 312.748C116.293 310.712 118.078 307.256 119.292 305.034C120.434 302.812 122.005 299.912 122.719 298.554C123.433 297.196 124.861 294.481 125.932 292.506C127.788 289.112 127.859 288.68 127.074 285.409C126.646 283.434 126.074 278.867 125.789 275.226C125.575 271.585 125.075 268.437 124.789 268.314C124.147 267.944 121.291 271.276 121.291 272.325C121.291 272.757 120.862 273.806 120.363 274.67C119.434 276.213 118.721 277.571 116.007 283.125C115.365 284.36 114.437 286.273 113.865 287.445C113.223 288.68 112.295 290.593 111.724 291.765C110.51 294.172 109.51 296.085 106.512 301.948C105.298 304.17 101.728 311.452 98.3721 318.117C94.945 325.214 92.0178 330.337 91.4466 330.337C90.9468 330.337 88.3051 328.794 85.5206 326.942C81.5938 324.165 80.7369 323.301 81.1653 322.437C81.8793 321.265 84.521 316.204 85.8776 313.365C86.3773 312.316 87.3768 310.403 88.0195 309.045C89.4473 306.33 90.8753 303.368 92.4461 300.22C92.9458 299.109 93.8741 297.258 94.4453 296.085C95.0878 294.851 96.016 292.938 96.5873 291.765C98.0865 288.803 99.3003 286.396 101.942 281.397C103.156 279.114 104.155 277.077 104.155 276.892C104.155 276.707 104.941 275.102 105.869 273.374C106.797 271.585 110.296 264.549 113.723 257.699L119.934 245.171L119.434 241.036C118.863 235.605 117.078 227.706 116.293 227.027C115.865 226.656 115.436 226.903 115.151 227.644C114.579 229.002 112.723 232.766 110.081 237.765C109.082 239.617 107.725 242.27 107.011 243.628C106.297 244.986 104.655 248.01 103.441 250.417C102.156 252.762 100.371 256.279 99.3718 258.131C98.4435 259.982 97.0156 262.636 96.3016 263.994C95.5876 265.352 94.1596 268.129 93.0888 270.165C92.0891 272.202 90.5898 274.979 89.8758 276.337C86.0918 283.619 84.878 285.841 83.4501 288.68C82.5933 290.346 80.8797 293.555 79.666 295.777C78.5236 297.998 76.9529 301.022 76.1675 302.565C72.5976 309.786 69.5275 314.908 68.8135 314.908C68.3851 314.908 66.8144 313.797 65.3151 312.501C62.8875 310.341 62.6734 309.848 63.1017 308.058C63.3873 306.885 64.0299 305.157 64.5297 304.108C65.0295 303.121 66.029 301.022 66.6716 299.48C67.3142 297.937 68.3138 295.838 68.8135 294.851C69.3133 293.802 70.2415 291.765 70.9555 290.222C71.598 288.68 72.5976 286.581 73.0974 285.594C73.5972 284.545 75.6677 280.286 77.7382 276.028C85.0208 261.031 93.8026 244.924 98.8005 237.456C100.157 235.42 101.514 233.322 101.728 232.828C102.942 230.606 109.939 221.843 112.009 219.991C115.151 217.152 118.792 215.301 123.433 214.128C125.575 213.573 129.073 212.709 131.215 212.215C133.286 211.66 135.285 211.413 135.642 211.598C135.999 211.783 136.284 213.511 136.284 215.424C136.284 217.338 136.641 220.177 137.07 221.719C137.498 223.262 138.069 227.52 138.426 231.285C139.14 239.37 140.354 249.244 141.353 255.662C141.782 258.193 142.353 263.068 142.71 266.462C143.353 273.374 144.424 281.521 145.923 292.074C146.494 295.962 146.994 300.467 146.994 302.072C146.994 303.676 147.28 306.33 147.708 307.934C148.065 309.539 148.707 314.106 149.064 317.994C149.493 321.882 150.135 327.745 150.564 330.954C150.992 334.163 151.778 340.396 152.349 344.84C152.848 349.222 153.705 355.763 154.205 359.343C154.705 362.922 155.276 368.168 155.562 371.068C156.276 378.042 157.632 388.841 158.417 394.211C158.846 396.556 159.488 401.925 159.845 405.999C160.202 410.134 160.845 414.268 161.273 415.132L161.987 416.798L169.984 416.613L178.052 416.428L177.909 414.576C177.552 408.59 176.267 396.495 175.91 395.754C175.696 395.26 175.267 391.497 174.91 387.423C174.196 379.338 173.125 370.081 171.912 361.688C171.483 358.725 170.912 353.418 170.555 349.962C169.77 341.198 168.556 331.386 167.342 322.931C166.771 319.043 166.271 314.229 166.271 312.316C166.271 310.403 165.914 307.441 165.557 305.836C165.129 304.232 164.558 299.541 164.201 295.468C163.772 291.395 163.201 285.532 162.773 282.508C162.344 279.422 161.559 272.51 160.916 267.079C160.274 261.649 159.346 253.564 158.774 249.182C158.203 244.739 157.561 239.617 157.418 237.765C157.204 234.433 156.347 227.088 154.705 214.746C153.777 207.834 153.919 207.525 158.774 207.525C160.345 207.525 162.773 207.278 164.129 206.908C166.343 206.414 173.697 205.612 185.691 204.624C191.689 204.131 191.832 204.254 191.046 208.574C190.261 212.709 190.832 216.782 192.26 216.782C192.831 216.782 193.759 217.399 194.33 218.14C194.973 218.942 196.187 220.3 197.115 221.164C198.043 222.09 200.542 224.682 202.684 226.965C204.826 229.31 207.753 232.334 209.11 233.754C210.466 235.173 213.394 238.259 215.535 240.542C222.033 247.516 223.104 248.503 223.96 248.01C224.46 247.763 229.529 241.406 235.313 233.877C241.096 226.348 246.879 219.251 248.307 218.078L250.735 215.98L248.807 211.29C245.737 203.884 245.737 204.439 248.521 204.439C249.878 204.439 251.163 204.563 251.377 204.748ZM172.697 217.214C172.697 218.51 173.054 221.472 173.482 223.879C173.911 226.225 174.482 231.223 174.839 234.988C175.624 244.06 176.838 255.354 177.766 262.081C178.195 265.105 178.837 270.536 179.123 274.115C179.408 277.694 180.051 283.681 180.479 287.445C180.908 291.148 181.764 298.554 182.407 303.8C182.978 309.045 183.835 316.142 184.263 319.537C184.692 322.931 185.263 328.609 185.549 332.188C186.191 339.594 187.405 350.456 188.476 358.108C188.833 361.009 189.475 366.563 189.832 370.451C190.832 381.683 191.974 391.743 193.117 399.765C193.688 403.839 194.116 408.961 194.116 411.183C194.116 413.404 194.402 415.565 194.687 415.997C195.116 416.553 197.186 416.738 202.398 416.613L209.467 416.428L209.252 410.565C209.11 404.704 207.61 386.373 206.182 371.685C205.754 367.427 205.111 359.775 204.826 354.714C204.112 343.358 202.898 328.671 201.899 319.228C201.47 315.34 200.899 307.934 200.542 302.874C199.757 290.099 198.543 275.72 197.258 263.994C196.687 258.563 196.258 251.157 196.258 247.516C196.258 243.566 195.901 240.234 195.401 239.185C194.902 238.259 191.903 234.679 188.761 231.285C185.62 227.891 181.122 222.83 178.766 220.053C176.41 217.276 174.054 214.992 173.554 214.931C173.054 214.931 172.697 215.795 172.697 217.214ZM202.684 246.775C202.684 247.639 202.969 248.195 203.326 248.01C203.683 247.825 203.826 247.084 203.612 246.405C203.112 244.677 202.684 244.862 202.684 246.775ZM240.596 253.317C240.596 255.23 240.667 255.23 241.31 253.934C241.667 253.132 241.81 252.206 241.524 251.898C240.81 250.91 240.525 251.342 240.596 253.317ZM232.243 267.573C231.743 268.314 230.957 269.61 230.529 270.474C230.101 271.338 229.172 272.51 228.601 273.128C227.53 274.115 227.316 274.115 225.531 272.202C223.532 270.165 221.533 270.227 222.318 272.325C222.532 272.942 222.889 277.694 223.032 282.878C223.389 292.629 224.103 295.16 226.674 295.16C227.744 295.16 227.816 296.147 227.602 303.306L227.316 311.452L229.601 312.748C233.171 314.723 234.313 317.006 233.885 321.697C233.528 326.264 232.314 330.954 230.815 333.855C230.243 334.904 229.815 336.076 229.815 336.447C229.815 336.817 229.529 337.619 229.172 338.236C226.459 342.495 226.245 343.605 226.245 351.875C226.245 356.504 226.602 363.601 226.959 367.674C227.316 371.747 227.744 380.881 228.03 388.039C228.744 410.935 229.172 416.059 230.315 417.046C231.814 418.342 241.453 418.342 242.667 417.046C243.452 416.244 243.523 412.108 243.095 397.112C241.881 351.381 241.31 317.13 241.239 293.308C241.239 279.237 241.024 267.079 240.81 266.277C240.025 263.747 238.097 264.92 237.098 268.622C236.598 270.474 235.741 273.313 235.17 274.855C234.599 276.46 234.099 278.435 234.099 279.237C234.099 280.039 233.813 280.965 233.385 281.336C233.028 281.644 232.385 283.187 231.957 284.668C230.672 289.852 229.458 293.308 229.03 293.308C228.458 293.308 229.387 289.05 231.243 283.125C232.1 280.41 233.099 277.077 233.385 275.72C233.67 274.362 234.242 272.449 234.741 271.523C235.17 270.536 235.527 268.993 235.527 268.005C235.527 266.956 236.027 265.969 236.741 265.66C237.455 265.29 237.74 264.673 237.383 263.994C236.955 263.006 236.741 263.068 235.027 264.549C233.956 265.475 232.742 266.833 232.243 267.573ZM176.053 427.352C174.767 428.154 173.625 428.956 173.411 429.141C173.054 429.512 169.199 431.919 162.344 435.931C160.417 437.103 158.346 438.399 157.775 438.83C157.275 439.263 155.919 440.127 154.919 440.682C153.919 441.238 151.135 442.904 148.779 444.447C146.423 445.928 144.424 447.224 144.281 447.347C144.138 447.409 144.781 448.829 145.566 450.433C150.635 460.245 149.993 459.443 152.349 459.012C153.491 458.827 154.562 458.394 154.705 458.085C154.848 457.715 155.347 457.469 155.847 457.469C156.347 457.469 157.489 456.913 158.417 456.234C159.346 455.555 160.488 455.001 161.059 455.001C161.559 455.001 161.987 454.753 161.987 454.445C161.987 454.136 162.63 453.643 163.487 453.457C166.485 452.593 187.69 441.238 187.69 440.436C187.69 439.571 180.979 428.154 179.694 426.735C178.694 425.748 178.766 425.748 176.053 427.352Z" fill="#2F2E41"/>
<path d="M366.524 218.578H326.304L330.845 231.944H369.119L366.524 218.578Z" fill="white" stroke="white"/>
<path d="M372.039 246.489L336.035 248.848L341.873 264.573L374.958 259.069L372.039 246.489Z" fill="white" stroke="white"/>
<line x1="363.439" y1="215.449" x2="375.806" y2="270.231" stroke="#2F2E41" stroke-width="5"/>
<line y1="-3.5" x2="43.7192" y2="-3.5" transform="matrix(0.994161 0.107904 -0.0736865 0.997281 258.838 211.501)" stroke="#2F2E41" stroke-width="7"/>
<path d="M194.29 237.054L173.856 215.826L172.558 217.398L173.856 225.654L195.912 241.772L194.29 237.054Z" fill="white" stroke="white"/>
</g>
<defs>
<clipPath id="clip0">
<rect width="710" height="500" fill="white"/>
</clipPath>
<clipPath id="clip1">
<rect width="55.7896" height="78.625" fill="white" transform="translate(389.878)"/>
</clipPath>
<clipPath id="clip2">
<rect width="74.6023" height="207.57" fill="white" transform="matrix(-1 0 0 1 137.528 292.485)"/>
</clipPath>
</defs>
</svg>
