<svg width="706" height="510" viewBox="0 0 706 510" fill="none" xmlns="http://www.w3.org/2000/svg">
<g id="Soccer">
<g id="dust">
<path id="Vector" d="M337.071 500.919C330.707 500.913 324.448 502.539 318.884 505.642H355.211C349.664 502.54 343.419 500.914 337.071 500.919V500.919Z" fill="#E6E6E6"/>
<path id="Vector_2" d="M407.564 496.196C396.935 496.183 386.563 499.484 377.877 505.642H437.211C428.537 499.491 418.18 496.191 407.564 496.196V496.196Z" fill="#E6E6E6"/>
<path id="Vector_3" d="M704.522 445.699C702.307 403.866 670.048 369.758 629.93 366.899C611.437 365.545 593.064 370.893 577.921 382.036C562.779 393.179 551.799 409.433 546.84 428.045C545.866 428.008 544.894 427.968 543.911 427.968C526.548 427.971 509.653 433.832 495.753 444.673C481.853 455.514 471.696 470.753 466.801 488.11C455.295 482.843 442.438 481.7 430.242 484.861C418.047 488.022 407.202 495.307 399.406 505.577H650.098C680.897 505.577 705.834 478.997 704.578 446.934C704.562 446.523 704.543 446.111 704.522 445.699Z" fill="#E6E6E6"/>
</g>
<path id="ground" d="M705.618 506.576H0.733032V508.574H705.618V506.576Z" fill="#3F3D56"/>
<g id="leftside">
<path id="leftside_2" d="M361.626 304.81C361.626 304.81 359.638 341.779 364.609 356.767C369.58 371.754 374.551 427.707 374.551 427.707H402.388C402.388 427.707 415.313 378.748 399.406 356.767C399.406 356.767 394.435 327.791 408.353 313.803L361.626 304.81Z" fill="#FFB8B8"/>
<path id="leftside_3" d="M404.377 423.211L372.881 421.213C372.881 421.213 374.789 454.185 370.972 465.176C367.154 476.167 369.063 480.163 369.063 480.163L396.741 482.162L404.377 423.211Z" fill="#536DFE"/>
<path id="leftside_4" d="M404.764 496.084C404.621 491.967 400.302 472.514 399.33 475.44C398.357 478.366 381.763 479.919 377.173 472.805C377.173 472.805 370.845 464.298 366.477 470.514C362.109 476.729 353.788 487.206 353.788 487.206C353.788 487.206 324.839 494.284 327.278 501.958C327.771 503.51 329.827 504.561 332.791 505.249C332.683 505.415 332.606 505.6 332.563 505.793L332.417 506.486C332.326 506.912 332.408 507.358 332.644 507.723C332.88 508.089 333.251 508.346 333.676 508.437L334.365 508.585C334.789 508.676 335.232 508.593 335.596 508.356C335.96 508.119 336.215 507.746 336.306 507.319L336.453 506.627C336.504 506.377 336.496 506.119 336.43 505.873C337.24 505.973 338.085 506.057 338.957 506.127C338.672 506.36 338.475 506.683 338.397 507.043L338.251 507.736C338.16 508.162 338.242 508.608 338.478 508.973C338.714 509.339 339.085 509.596 339.51 509.687L340.199 509.835C340.623 509.925 341.066 509.843 341.43 509.606C341.794 509.369 342.049 508.996 342.14 508.569L342.287 507.877C342.347 507.59 342.329 507.293 342.236 507.015C342.143 506.738 341.977 506.491 341.756 506.299C344.074 506.403 346.511 506.427 348.946 506.395C348.741 506.611 348.599 506.88 348.535 507.172L348.389 507.865C348.298 508.291 348.38 508.737 348.616 509.102C348.852 509.468 349.223 509.725 349.648 509.816L350.337 509.963C350.761 510.054 351.204 509.972 351.568 509.735C351.932 509.498 352.187 509.125 352.278 508.698L352.425 508.006C352.49 507.695 352.465 507.371 352.351 507.075C352.238 506.778 352.041 506.521 351.785 506.334C353.617 506.281 355.419 506.202 357.138 506.109C356.933 506.325 356.792 506.593 356.729 506.885L356.582 507.577C356.491 508.004 356.573 508.449 356.809 508.815C357.045 509.181 357.416 509.437 357.841 509.528L358.53 509.676C358.954 509.767 359.397 509.684 359.761 509.447C360.125 509.21 360.381 508.837 360.471 508.41L360.618 507.718C360.69 507.376 360.651 507.019 360.507 506.701C360.363 506.383 360.121 506.119 359.817 505.949C365.87 505.556 370.332 505.053 370.332 505.053C370.332 505.053 375.545 504.32 381.91 503.186L381.784 503.782C381.693 504.209 381.775 504.654 382.011 505.02C382.247 505.386 382.618 505.642 383.043 505.733L383.732 505.881C384.156 505.972 384.599 505.89 384.963 505.652C385.327 505.415 385.583 505.042 385.673 504.616L385.82 503.923C385.871 503.679 385.866 503.427 385.805 503.185C385.744 502.943 385.629 502.719 385.469 502.529C386.75 502.284 388.045 502.027 389.329 501.759L389.212 502.309C389.122 502.735 389.203 503.181 389.439 503.547C389.676 503.912 390.047 504.169 390.471 504.26L391.16 504.408C391.584 504.499 392.027 504.416 392.391 504.179C392.755 503.942 393.011 503.569 393.101 503.142L393.248 502.45C393.303 502.191 393.295 501.923 393.224 501.668C393.153 501.413 393.023 501.18 392.843 500.987C394.238 500.664 395.586 500.331 396.836 499.99C396.82 500.041 396.798 500.09 396.787 500.143L396.64 500.836C396.55 501.262 396.632 501.707 396.868 502.073C397.104 502.439 397.475 502.696 397.899 502.787L398.588 502.934C399.013 503.025 399.456 502.943 399.82 502.706C400.184 502.468 400.439 502.095 400.53 501.669L400.677 500.976C400.755 500.606 400.704 500.219 400.531 499.882C400.359 499.545 400.076 499.278 399.73 499.126C402.786 498.122 404.799 497.082 404.764 496.084Z" fill="#2F2E41"/>
<path id="leftside_5" d="M377.172 452.235C377.172 452.235 385.017 444.914 389.5 448.856C393.983 452.798 396.785 455.614 396.785 455.614C396.785 455.614 383.896 447.73 377.172 452.235Z" fill="#2F2E41"/>
</g>
<g id="rightside">
<path id="Vector_4" d="M236.699 180.088C236.699 180.088 198.388 168.095 204.27 187.827C210.151 207.559 242.42 197.592 242.42 197.592L236.699 180.088Z" fill="#FFB8B8"/>
<path id="Vector_5" d="M383.147 106.025C383.147 106.025 363.513 79.061 344.438 107.053C325.325 135.1 307.555 158.125 307.555 158.125L260.087 173.68L232.625 176.129L240.19 200.666L320.037 189.025C320.037 189.025 408.932 135.955 383.147 106.025Z" fill="#2F2E41"/>
<path id="Vector_6" d="M295.512 255.352C295.512 255.352 265.686 276.334 267.675 295.318C269.663 314.302 282.588 366.259 282.588 366.259L309.431 362.262C309.431 362.262 312.414 322.295 302.472 307.308L350.193 280.331L295.512 255.352Z" fill="#FFB8B8"/>
<path id="Vector_7" d="M355.164 202.396C355.164 202.396 290.541 243.362 290.541 256.351L342.239 299.315L360.135 279.331L358.147 309.306L413.822 320.297C413.822 320.297 433.705 244.361 432.711 241.363C431.717 238.366 428.734 194.403 428.734 194.403L355.164 202.396Z" fill="#2F2E41"/>
<path id="Vector_8" d="M309.431 357.266L280.599 363.261L285.722 384.426C288.243 394.843 288.53 405.68 286.564 416.217V416.217C286.564 416.217 316.39 424.21 316.39 420.214C316.39 416.217 309.431 400.23 311.419 389.239C313.408 378.249 309.431 357.266 309.431 357.266Z" fill="#536DFE"/>
<path id="Vector_9" d="M324.344 432.204C323.35 428.207 315.089 410.086 314.746 413.152C314.402 416.217 298.495 421.213 292.53 415.218C292.53 415.218 284.576 408.224 281.593 415.218C278.611 422.212 272.646 434.202 272.646 434.202C272.646 434.202 245.802 447.191 249.779 454.185C250.583 455.6 252.812 456.196 255.854 456.249C255.783 456.434 255.746 456.63 255.744 456.829V457.537C255.744 457.973 255.917 458.391 256.224 458.699C256.53 459.008 256.947 459.181 257.38 459.181H258.085C258.519 459.181 258.935 459.008 259.242 458.699C259.549 458.391 259.721 457.973 259.721 457.537V456.829C259.72 456.574 259.658 456.322 259.542 456.096C260.356 456.024 261.199 455.929 262.066 455.815C261.837 456.102 261.711 456.46 261.71 456.829V457.537C261.71 457.973 261.882 458.391 262.189 458.699C262.496 459.008 262.912 459.181 263.346 459.181H264.05C264.484 459.181 264.9 459.008 265.207 458.699C265.514 458.391 265.686 457.973 265.686 457.537V456.829C265.686 456.536 265.607 456.248 265.458 455.997C265.309 455.745 265.096 455.538 264.84 455.397C267.128 455.013 269.517 454.525 271.892 453.984C271.736 454.238 271.653 454.531 271.651 454.83V455.538C271.651 455.974 271.824 456.393 272.131 456.701C272.438 457.009 272.854 457.183 273.288 457.183H273.992C274.426 457.183 274.842 457.009 275.149 456.701C275.456 456.393 275.628 455.974 275.628 455.538V454.83C275.628 454.512 275.536 454.201 275.363 453.935C275.191 453.669 274.945 453.458 274.656 453.33C276.437 452.893 278.183 452.438 279.844 451.987C279.689 452.241 279.606 452.534 279.605 452.832V453.54C279.605 453.976 279.777 454.394 280.084 454.703C280.391 455.011 280.807 455.184 281.241 455.184H281.946C282.38 455.184 282.796 455.011 283.103 454.703C283.409 454.394 283.582 453.976 283.582 453.54V452.832C283.581 452.482 283.469 452.142 283.262 451.861C283.055 451.58 282.764 451.373 282.431 451.27C288.27 449.617 292.53 448.19 292.53 448.19C292.53 448.19 297.476 446.381 303.466 443.937V444.547C303.466 444.984 303.638 445.402 303.945 445.71C304.252 446.019 304.668 446.192 305.102 446.192H305.806C306.24 446.192 306.657 446.019 306.963 445.71C307.27 445.402 307.443 444.984 307.443 444.547V443.839C307.442 443.59 307.385 443.344 307.275 443.121C307.165 442.897 307.006 442.702 306.81 442.549C308.012 442.041 309.225 441.519 310.425 440.988V441.55C310.425 441.986 310.597 442.404 310.904 442.713C311.211 443.021 311.627 443.194 312.061 443.194H312.766C313.2 443.194 313.616 443.021 313.923 442.713C314.23 442.404 314.402 441.986 314.402 441.55V440.842C314.402 440.577 314.338 440.317 314.216 440.083C314.094 439.848 313.918 439.647 313.702 439.496C314.999 438.888 316.248 438.28 317.401 437.685C317.395 437.738 317.384 437.79 317.384 437.844V438.552C317.385 438.989 317.557 439.407 317.864 439.715C318.171 440.024 318.587 440.197 319.021 440.197H319.725C320.159 440.197 320.575 440.024 320.882 439.715C321.189 439.407 321.361 438.989 321.361 438.552V437.844C321.361 437.465 321.231 437.098 320.992 436.804C320.754 436.511 320.422 436.309 320.052 436.233C322.832 434.611 324.585 433.172 324.344 432.204Z" fill="#2F2E41"/>
<path id="Vector_10" d="M355.164 72.5046C371.087 72.5046 383.996 59.5317 383.996 43.5288C383.996 27.526 371.087 14.5531 355.164 14.5531C339.241 14.5531 326.332 27.526 326.332 43.5288C326.332 59.5317 339.241 72.5046 355.164 72.5046Z" fill="#FFB8B8"/>
<path id="Vector_11" d="M381.013 40.5313C381.013 40.5313 396.92 60.5146 404.874 59.5154L370.077 86.4928C370.077 86.4928 366.1 69.5071 361.129 67.5087C356.158 65.5104 381.013 40.5313 381.013 40.5313Z" fill="#FFB8B8"/>
<path id="Vector_12" d="M443.15 188.907C443.15 188.907 443.148 78.6531 424.745 69.1556C406.352 59.6635 394.185 54.2459 394.185 54.2459C393.915 57.8636 392.892 61.384 391.182 64.5795C389.473 67.775 387.116 70.5747 384.263 72.7975C378.165 77.5292 372.089 81.4528 368.695 81.4653L368.586 80.9974L368.172 79.8096L358.147 95.4853C358.147 95.4853 349.199 97.4836 346.216 103.479C344.603 106.722 352.212 139.372 347.707 168.924C343.886 193.997 327.783 216.63 327.326 219.382C326.555 224.033 346.127 211.846 354.941 206.149C355.071 206.295 355.164 206.392 355.164 206.392C355.164 206.392 350.193 208.391 360.135 205.393C365.768 203.695 373.633 203.601 379.395 203.838C379.388 205.574 379.428 206.953 379.522 207.891C380.516 217.883 430.226 231.871 437.185 228.874C444.144 225.876 443.15 188.907 443.15 188.907Z" fill="#2F2E41"/>
<path id="Vector_13" d="M408.353 226.875C408.353 226.875 378.528 253.853 398.411 258.849C418.295 263.844 426.249 230.872 426.249 230.872L408.353 226.875Z" fill="#FFB8B8"/>
<path id="Vector_14" d="M373.557 296.817C373.557 296.817 387.475 283.828 395.429 290.822C403.382 297.816 408.353 302.812 408.353 302.812C408.353 302.812 385.487 288.824 373.557 296.817Z" fill="#536DFE"/>
<path id="Vector_15" d="M289.282 384.138C289.282 384.138 294.667 374.839 300.098 377.299C305.528 379.759 309.024 381.634 309.024 381.634C309.024 381.634 294.41 377.86 289.282 384.138Z" fill="#2F2E41"/>
<path id="Vector_16" d="M435.638 82.8647C425.783 62.9554 395.796 73.8139 400.669 95.5049C400.741 95.8282 400.817 96.1548 400.897 96.4845C406.033 117.017 414.425 136.585 425.752 154.436L414.816 203.395L402.885 228.374L427.74 234.369L458.56 159.432C458.56 159.432 450.059 111.998 435.638 82.8647Z" fill="#2F2E41"/>
<path id="Vector_17" opacity="0.2" d="M421.278 155.934L402.388 227.874L418.295 193.903L421.278 155.934Z" fill="black"/>
<path id="Vector_18" d="M373.271 9.75317C373.271 9.75317 357.334 -7.1092 341.292 3.51008C325.251 14.1294 317.641 24.445 319.214 31.6275C320.787 38.8101 325.442 48.8007 325.442 48.8007C325.442 48.8007 322.549 33.9205 335.831 32.8193C349.114 31.7182 367.466 22.8839 367.466 22.8839L379.879 49.5255C379.879 49.5255 381.634 43.3518 386.499 45.1226C391.364 46.8933 387.593 11.7282 373.271 9.75317Z" fill="#2F2E41"/>
</g>
<g id="soccerball">
<path id="Vector_19" d="M271.154 390.738C271.153 393.269 270.944 395.796 270.528 398.292V398.302C269.386 405.017 266.742 411.383 262.794 416.92C258.846 422.458 253.698 427.022 247.739 430.267C241.78 433.513 235.165 435.356 228.393 435.657C221.621 435.957 214.87 434.708 208.649 432.004H208.639C206.799 431.205 205.015 430.281 203.3 429.236C197.987 426.012 193.399 421.714 189.825 416.614C186.252 411.515 183.772 405.724 182.542 399.611C181.965 396.689 181.675 393.717 181.677 390.738C181.677 389.379 181.736 388.03 181.856 386.702V386.692C182.887 375.218 188.262 364.58 196.87 356.973C205.479 349.366 216.664 345.37 228.119 345.81C239.573 346.249 250.423 351.091 258.429 359.336C266.435 367.581 270.987 378.6 271.144 390.119V390.129C271.154 390.339 271.154 390.528 271.154 390.738Z" fill="#536DFE"/>
<path id="Vector_20" d="M237.428 375.72H217.391L207.372 358.285L214.168 346.447L214.565 346.34C223.168 344.03 232.254 344.285 240.715 347.075L241.075 347.195L247.448 358.285L237.428 375.72ZM218.539 373.722H236.281L245.151 358.285L239.734 348.855C231.872 346.35 223.468 346.11 215.477 348.164L209.668 358.285L218.539 373.722Z" fill="white"/>
<path id="Vector_21" d="M236.434 411.691H216.397L206.378 394.252L216.397 376.812H236.434L246.453 394.252L236.434 411.691ZM217.544 409.693H235.287L244.157 394.252L235.287 378.811H217.545L208.674 394.252L217.544 409.693Z" fill="white"/>
<path id="Vector_22" d="M226.416 436.7C220.167 436.712 213.983 435.425 208.253 432.92L207.231 432.474L217.391 414.778H237.428L247.16 431.719L246.193 432.185C240.025 435.172 233.263 436.716 226.416 436.7V436.7ZM210.074 431.52C215.54 433.731 221.394 434.81 227.286 434.693C233.177 434.576 238.984 433.265 244.359 430.839L236.281 416.776H218.539L210.074 431.52Z" fill="white"/>
<path id="Vector_23" d="M270.237 393.705H250.2L240.18 376.27L250.199 358.824H259.323L259.617 359.136C267.53 367.502 272.002 378.565 272.139 390.106V390.396L270.237 393.705ZM251.347 391.707H269.089L270.147 389.868C269.955 379.069 265.794 368.723 258.466 360.823H251.348L242.477 376.27L251.347 391.707Z" fill="white"/>
<path id="Vector_24" d="M249.923 430.187L240.18 413.239L250.199 395.794H270.236L271.522 398.022L271.508 398.469C270.422 404.832 268.017 410.894 264.449 416.263C260.881 421.631 256.23 426.186 250.798 429.631L249.923 430.187ZM242.477 413.239L250.604 427.375C255.528 424.088 259.739 419.833 262.984 414.868C266.229 409.902 268.442 404.328 269.488 398.481L269.09 397.792H251.348L242.477 413.239Z" fill="white"/>
<path id="Vector_25" d="M203.654 430.618L202.786 430.091C197.357 426.793 192.668 422.399 189.015 417.186C185.363 411.973 182.827 406.055 181.567 399.807L181.493 399.437L183.588 395.794H203.626L213.645 413.239L203.654 430.618ZM183.592 399.781C184.799 405.518 187.134 410.955 190.458 415.774C193.783 420.592 198.031 424.696 202.953 427.844L211.349 413.239L202.478 397.792H184.736L183.592 399.781Z" fill="white"/>
<path id="Vector_26" d="M203.626 391.707H183.589L180.862 386.97V386.702C181.843 375.378 186.977 364.826 195.266 357.094L195.553 356.826H203.626L213.645 374.272L203.626 391.707ZM184.736 389.709H202.478L211.349 374.272L202.478 358.824H196.337C188.667 366.1 183.884 375.924 182.874 386.475L184.736 389.709Z" fill="white"/>
</g>
</g>
</svg>
